{"glyphs":{"0":{"ha":797,"x_min":81,"x_max":718,"o":"m 336 -14 q 148 81 215 -14 q 81 342 81 176 q 126 631 81 497 q 259 850 171 765 q 461 935 347 935 q 650 840 582 935 q 718 579 718 746 q 673 292 718 425 q 539 72 628 158 q 336 -14 450 -14 m 185 382 q 225 158 185 247 q 346 68 265 68 q 539 212 464 68 q 614 542 614 356 q 573 763 614 674 q 451 853 532 853 q 261 715 338 853 q 185 382 185 576 z "},"1":{"ha":797,"x_min":151,"x_max":563,"o":"m 424 75 q 560 81 514 75 q 563 58 563 67 q 503 -3 563 -3 q 423 -1 494 -3 q 294 0 351 0 q 154 -1 194 0 q 151 21 151 15 q 235 79 151 79 l 324 79 q 349 260 329 119 q 381 492 368 401 q 422 842 411 726 q 257 822 276 826 q 258 853 257 843 q 317 913 264 906 q 485 935 460 935 q 532 892 532 935 q 521 815 532 879 q 492 641 510 751 q 461 432 474 531 l 450 346 q 424 75 428 188 z "},"2":{"ha":797,"x_min":40,"x_max":653,"o":"m 199 733 q 156 774 156 740 q 247 882 156 829 q 435 935 339 935 q 590 879 526 935 q 653 722 653 824 q 645 643 653 682 q 618 565 638 604 q 581 495 599 526 q 526 424 563 464 q 466 359 490 385 q 393 291 442 333 q 318 226 344 249 q 234 156 292 203 q 150 88 176 110 q 265 85 194 85 q 468 92 403 85 q 601 124 533 99 q 611 72 611 99 q 572 17 611 31 q 358 -3 519 -3 q 217 -1 307 -3 q 92 0 128 0 q 40 51 40 0 q 44 83 40 64 q 195 216 103 138 q 339 341 288 294 q 446 449 390 388 q 526 569 501 511 q 551 692 551 628 q 512 808 551 765 q 413 851 472 851 q 300 819 358 851 q 199 733 242 786 z "},"3":{"ha":797,"x_min":53,"x_max":619,"o":"m 450 506 q 588 310 588 435 q 492 83 588 181 q 239 -14 397 -14 q 99 10 146 -14 q 53 67 53 35 q 69 106 53 90 q 108 124 85 121 q 256 68 147 68 q 421 134 358 68 q 483 283 483 200 q 429 405 483 357 q 268 453 375 453 q 231 489 231 453 q 236 521 231 504 q 442 583 369 521 q 515 729 515 644 q 484 817 515 782 q 397 853 453 853 q 299 825 349 853 q 215 744 250 797 q 178 756 192 744 q 165 783 165 767 q 245 885 165 835 q 417 935 325 935 q 567 882 515 935 q 619 751 619 829 q 576 613 619 676 q 450 506 533 549 z "},"4":{"ha":797,"x_min":82,"x_max":693,"o":"m 179 379 q 318 375 246 375 q 467 379 397 375 q 528 804 494 579 q 179 379 379 656 m 532 918 q 600 936 554 936 q 640 932 624 936 q 557 383 578 568 q 688 407 654 392 q 693 371 693 388 q 658 303 693 314 q 546 290 628 292 q 526 79 526 154 q 532 -3 526 32 q 476 -14 507 -14 q 433 -1 444 -14 q 421 39 421 11 q 456 289 421 56 q 106 299 179 289 q 82 339 82 303 q 92 394 82 368 q 314 681 161 499 q 532 918 467 864 z "},"5":{"ha":797,"x_min":69,"x_max":663,"o":"m 553 822 q 311 831 453 822 l 263 588 q 354 596 311 596 q 547 531 482 596 q 613 360 613 467 q 513 97 613 207 q 257 -14 414 -14 q 116 11 163 -14 q 69 68 69 36 q 86 106 69 90 q 126 124 103 121 q 272 68 163 68 q 442 147 376 68 q 508 322 508 225 q 454 461 508 406 q 301 517 400 517 q 193 510 244 517 q 185 547 185 521 q 250 922 185 549 q 508 919 288 919 q 656 931 600 919 q 663 883 663 915 q 553 822 656 822 z "},"6":{"ha":797,"x_min":114,"x_max":660,"o":"m 410 464 q 219 381 317 464 q 213 276 213 322 q 363 68 213 68 q 502 140 450 68 q 554 303 554 211 q 515 421 554 378 q 410 464 475 464 m 340 -14 q 114 275 114 -14 q 149 505 114 389 q 247 717 185 621 q 404 874 308 813 q 611 935 500 935 q 660 894 660 935 q 647 846 660 871 q 596 851 614 851 q 360 738 456 851 q 231 458 265 624 q 446 543 336 543 q 598 485 538 543 q 658 326 658 426 q 567 92 658 199 q 340 -14 475 -14 z "},"7":{"ha":797,"x_min":88,"x_max":726,"o":"m 622 829 q 253 822 424 822 q 163 875 163 822 q 181 931 163 903 q 326 919 244 919 q 722 922 656 919 q 726 885 726 903 q 711 818 726 847 q 265 82 653 683 q 168 -14 204 -14 q 123 3 147 -14 q 88 40 99 21 q 381 416 215 164 q 622 829 546 668 z "},"8":{"ha":797,"x_min":99,"x_max":690,"o":"m 460 853 q 343 815 390 853 q 296 719 296 778 q 333 625 296 664 q 442 553 369 586 q 596 753 596 625 q 556 825 596 797 q 460 853 517 853 m 357 68 q 504 129 449 68 q 560 272 560 190 q 518 383 560 340 q 389 468 476 426 q 199 219 199 383 q 240 113 199 157 q 357 68 282 68 m 346 -14 q 162 48 225 -14 q 99 201 99 110 q 160 390 99 313 q 314 510 221 467 q 199 697 199 579 q 277 868 199 801 q 471 935 356 935 q 627 888 564 935 q 690 763 690 840 q 515 510 690 597 q 623 418 585 471 q 661 283 661 365 q 578 74 661 163 q 346 -14 496 -14 z "},"9":{"ha":797,"x_min":147,"x_max":692,"o":"m 396 458 q 586 542 489 458 q 593 646 593 600 q 443 854 593 854 q 303 783 356 854 q 251 619 251 711 q 291 501 251 544 q 396 458 331 458 m 464 936 q 692 650 692 936 q 657 420 692 536 q 560 207 622 304 q 401 49 497 110 q 193 -12 306 -12 q 147 25 147 -12 q 157 76 147 47 q 210 71 193 71 q 445 185 350 71 q 575 464 540 299 q 360 379 469 379 q 208 438 268 379 q 147 596 147 496 q 238 830 147 724 q 464 936 329 936 z "}," ":{"ha":278,"x_min":0,"x_max":0,"o":""},"!":{"ha":349,"x_min":69,"x_max":314,"o":"m 139 -14 q 90 6 110 -14 q 69 60 69 26 q 97 131 69 100 q 161 163 125 163 q 210 141 190 163 q 229 88 229 119 q 203 16 229 46 q 139 -14 176 -14 m 314 897 q 302 819 314 875 q 273 676 290 764 q 244 510 256 588 q 226 338 226 364 q 232 276 226 303 q 178 263 201 263 q 129 314 129 263 q 157 567 129 324 q 185 903 185 811 q 183 939 185 929 q 257 950 228 950 q 314 897 314 950 z "},"\"":{"ha":478,"x_min":118,"x_max":506,"o":"m 164 988 q 215 1021 169 1021 q 258 1007 240 1021 q 275 965 275 993 q 249 859 275 946 q 204 722 224 772 q 158 674 186 674 q 118 686 143 674 q 143 788 133 722 q 157 913 153 853 q 164 988 161 974 m 394 988 q 446 1021 400 1021 q 488 1007 471 1021 q 506 965 506 993 q 480 859 506 946 q 435 722 454 772 q 389 674 417 674 q 349 686 374 674 q 374 788 364 722 q 388 913 383 853 q 394 988 392 974 z "},"#":{"ha":797,"x_min":39,"x_max":758,"o":"m 432 306 q 322 307 399 307 l 279 307 q 267 260 276 296 q 251 194 258 224 q 243 147 244 164 q 239 68 239 119 q 194 57 221 57 q 161 89 161 57 q 215 306 161 119 q 40 281 110 300 q 39 307 39 290 q 119 381 39 381 q 238 379 197 381 l 279 540 q 104 515 174 535 q 103 542 103 525 q 183 615 103 615 q 299 614 258 615 q 325 724 303 633 q 351 847 347 815 q 388 851 371 851 q 424 819 424 851 q 414 773 424 808 q 388 685 404 738 q 365 614 371 632 l 515 614 q 542 724 519 633 q 568 847 564 815 q 604 851 588 851 q 640 819 640 851 q 631 773 640 808 q 604 685 621 738 q 582 614 588 632 q 758 624 683 618 q 741 556 756 581 q 686 531 726 531 q 660 532 679 531 q 611 535 642 533 q 557 538 581 536 q 514 379 526 432 q 694 389 625 383 q 677 321 692 346 q 622 296 663 296 q 597 297 615 296 q 548 300 578 299 q 494 303 518 301 q 483 257 492 292 q 468 193 475 222 q 460 147 461 164 q 456 68 456 119 q 411 57 438 57 q 378 89 378 57 q 432 306 378 119 m 299 378 q 453 379 419 378 q 494 540 468 429 q 383 542 460 542 l 343 542 q 299 378 315 447 z "},"$":{"ha":797,"x_min":96,"x_max":689,"o":"m 281 668 q 381 536 281 581 l 425 847 q 322 793 364 840 q 281 668 281 746 m 540 269 q 508 353 540 324 q 415 403 475 382 q 390 222 406 338 q 369 68 375 107 q 490 126 440 72 q 540 269 540 179 m 331 -108 q 296 -79 296 -108 q 304 -12 296 -68 q 157 24 218 -8 q 96 104 96 57 q 114 153 96 135 q 167 188 132 171 q 222 113 181 144 q 317 72 264 82 q 365 419 318 88 q 310 440 332 431 q 262 466 289 449 q 219 504 235 483 q 193 558 204 525 q 182 632 182 590 q 252 833 182 754 q 433 928 322 911 q 442 1022 439 978 q 467 1026 458 1026 q 500 999 500 1026 q 492 932 500 990 q 627 900 565 931 q 689 818 689 869 q 611 739 689 754 q 561 808 597 779 q 479 844 525 836 q 432 515 436 543 q 504 488 482 497 q 559 461 526 479 q 606 426 592 443 q 631 380 619 408 q 642 315 642 351 q 564 87 642 175 q 360 -12 486 -1 q 351 -106 353 -62 l 331 -108 z "},"%":{"ha":989,"x_min":97,"x_max":892,"o":"m 674 -14 q 556 35 599 -14 q 514 169 514 85 q 575 367 514 288 q 733 447 636 447 q 850 399 808 447 q 892 265 892 351 q 831 67 892 147 q 674 -14 771 -14 m 725 379 q 635 322 669 379 q 600 192 600 264 q 620 95 600 135 q 682 56 640 56 q 770 115 736 56 q 804 249 804 175 q 784 342 804 304 q 725 379 764 379 m 144 35 l 810 961 q 847 948 831 960 q 864 919 864 936 q 846 882 864 908 q 731 722 828 856 q 378 238 547 472 q 185 -40 294 124 q 131 1 131 -29 q 144 35 133 21 m 257 463 q 140 512 182 463 q 97 646 97 561 q 158 844 97 764 q 317 924 219 924 q 433 876 392 924 q 475 742 475 828 q 415 543 475 624 q 257 463 354 463 m 308 856 q 218 798 253 856 q 183 668 183 740 q 203 572 183 611 q 265 532 224 532 q 353 592 319 532 q 388 725 388 651 q 367 818 388 781 q 308 856 347 856 z "},"&":{"ha":972,"x_min":54,"x_max":1014,"o":"m 576 326 q 518 283 556 283 q 481 339 481 283 q 533 466 481 404 q 661 528 586 528 q 775 507 700 528 q 876 486 850 486 q 935 547 935 486 q 917 607 935 581 q 976 649 936 649 q 1014 593 1014 649 q 961 467 1014 531 q 835 404 908 404 q 785 410 811 404 q 628 83 735 181 q 357 -15 521 -15 q 136 63 218 -15 q 54 249 54 140 q 107 404 54 331 q 261 521 160 478 q 150 683 150 576 q 233 862 150 786 q 436 938 315 938 q 572 901 515 938 q 628 819 628 864 q 564 760 628 768 q 507 831 544 807 q 424 856 469 856 q 305 814 353 856 q 257 704 257 772 q 293 619 257 657 q 401 581 329 581 q 428 582 418 581 q 431 557 431 563 q 428 538 431 546 q 423 526 425 531 q 412 517 421 521 q 401 512 403 513 q 385 508 399 511 q 371 506 372 506 q 221 417 274 483 q 168 269 168 350 q 225 126 168 186 q 382 67 282 67 q 592 149 515 67 q 696 432 668 232 q 611 447 644 447 q 571 431 585 447 q 557 386 557 414 q 576 326 557 349 z "},"'":{"ha":247,"x_min":118,"x_max":275,"o":"m 164 988 q 215 1021 169 1021 q 258 1007 240 1021 q 275 965 275 993 q 249 859 275 946 q 204 722 224 772 q 158 674 186 674 q 118 686 143 674 q 143 788 133 722 q 157 913 153 853 q 164 988 161 974 z "},"(":{"ha":461,"x_min":114,"x_max":503,"o":"m 329 -250 q 279 -282 303 -282 q 172 -128 229 -282 q 114 219 114 26 q 156 508 114 358 q 256 766 199 658 q 370 944 313 874 q 461 1015 428 1015 q 503 983 485 1015 q 294 635 374 851 q 214 203 214 418 q 245 -58 214 61 q 329 -250 276 -176 z "},")":{"ha":461,"x_min":-42,"x_max":346,"o":"m 131 983 q 181 1015 157 1015 q 288 858 231 1015 q 346 510 346 701 q 302 213 346 365 q 200 -43 258 61 q 85 -215 142 -147 q 0 -282 29 -282 q -42 -250 -24 -282 q 168 100 89 -115 q 247 526 247 315 q 217 787 247 664 q 131 983 186 910 z "},"*":{"ha":625,"x_min":139,"x_max":597,"o":"m 343 1025 q 389 1032 367 1032 q 446 988 446 1032 q 415 847 446 967 q 567 943 471 879 q 597 876 597 913 q 589 847 597 860 q 560 822 581 833 q 524 803 539 810 q 475 785 510 797 q 425 767 440 772 q 544 636 471 710 q 461 579 504 579 q 445 583 453 579 q 430 594 438 586 q 416 610 422 601 q 401 633 410 618 q 388 658 393 647 q 372 689 382 669 q 354 722 361 708 q 226 563 300 660 q 165 629 165 586 q 297 771 165 661 q 139 836 219 808 q 169 894 149 868 q 217 919 190 919 q 335 851 239 919 q 343 1025 342 946 z "},"+":{"ha":797,"x_min":96,"x_max":703,"o":"m 439 389 q 699 400 603 389 q 703 358 703 388 q 689 317 703 333 q 653 300 675 300 q 551 305 629 300 q 438 310 472 310 q 449 36 438 158 q 407 32 428 32 q 366 45 383 32 q 349 82 349 58 q 353 172 349 93 q 358 311 357 250 q 100 300 221 310 q 96 342 96 321 q 108 382 96 364 q 146 400 121 400 q 230 396 157 400 q 360 390 303 392 q 349 664 360 568 q 390 668 361 668 q 432 654 415 668 q 449 618 449 640 q 444 509 449 594 q 439 389 439 424 z "},",":{"ha":279,"x_min":-22,"x_max":196,"o":"m 103 -17 q 49 51 103 39 q 42 85 42 69 q 67 142 42 118 q 128 167 93 167 q 176 144 157 167 q 196 74 196 121 q 136 -108 196 -18 q 8 -199 76 -199 q -22 -165 -22 -199 q -17 -140 -22 -157 l -11 -140 q 69 -101 36 -140 q 103 -17 103 -62 z "},"-":{"ha":311,"x_min":35,"x_max":304,"o":"m 303 413 q 304 397 304 407 q 290 342 304 367 q 246 317 275 317 q 206 320 238 317 q 147 324 174 324 q 36 313 85 324 q 35 333 35 319 q 92 408 35 408 q 131 406 93 408 q 200 403 169 403 q 303 413 260 403 z "},".":{"ha":283,"x_min":42,"x_max":201,"o":"m 111 -14 q 62 6 82 -14 q 42 60 42 26 q 69 131 42 100 q 133 163 97 163 q 182 141 163 163 q 201 88 201 119 q 175 16 201 46 q 111 -14 149 -14 z "},"/":{"ha":338,"x_min":-21,"x_max":386,"o":"m 342 1031 q 386 1001 386 1031 q 338 823 386 986 q 246 512 290 660 q 197 353 201 364 q 115 74 165 251 q 51 -165 64 -104 q 18 -169 33 -169 q -21 -137 -21 -169 q 225 704 -21 -121 q 313 1026 289 924 l 342 1031 z "},":":{"ha":311,"x_min":42,"x_max":268,"o":"m 111 -14 q 62 6 82 -14 q 42 60 42 26 q 69 131 42 100 q 133 163 97 163 q 182 141 163 163 q 201 88 201 119 q 175 16 201 46 q 111 -14 149 -14 m 178 488 q 128 508 149 488 q 108 561 108 528 q 136 633 108 601 q 200 664 164 664 q 249 642 229 664 q 268 589 268 621 q 242 517 268 547 q 178 488 215 488 z "},";":{"ha":307,"x_min":-22,"x_max":242,"o":"m 151 488 q 102 508 122 488 q 82 561 82 528 q 110 633 82 601 q 174 664 138 664 q 222 642 203 664 q 242 589 242 621 q 215 517 242 547 q 151 488 189 488 m 103 -17 q 49 51 103 39 q 42 85 42 69 q 67 142 42 118 q 128 167 93 167 q 176 144 157 167 q 196 74 196 121 q 136 -108 196 -18 q 8 -199 76 -199 q -22 -165 -22 -199 q -17 -140 -22 -157 l -11 -140 q 69 -101 36 -140 q 103 -17 103 -62 z "},"<":{"ha":797,"x_min":181,"x_max":625,"o":"m 286 349 q 549 72 338 290 q 475 25 519 25 q 442 40 456 25 l 181 349 l 526 640 q 563 656 546 656 q 601 641 583 656 q 625 608 618 626 q 516 524 599 588 q 363 407 433 461 q 286 349 292 353 z "},"=":{"ha":797,"x_min":124,"x_max":675,"o":"m 675 219 q 661 178 675 194 q 625 161 647 161 q 526 167 603 161 q 408 172 449 172 q 128 161 250 172 q 124 203 124 182 q 136 243 124 225 q 174 261 149 261 q 261 256 178 261 q 406 251 344 251 q 671 261 586 251 q 675 219 675 249 m 675 497 q 661 456 675 472 q 625 439 647 439 q 526 444 603 439 q 408 450 449 450 q 128 439 250 450 q 124 481 124 460 q 136 521 124 503 q 174 539 149 539 q 261 534 178 539 q 406 529 344 529 q 671 539 586 529 q 675 497 675 526 z "},">":{"ha":797,"x_min":160,"x_max":606,"o":"m 500 349 q 441 407 496 353 q 322 524 386 461 q 236 608 257 588 q 268 641 247 626 q 310 656 289 656 q 343 640 328 656 l 606 349 l 258 40 q 222 25 242 25 q 185 38 203 25 q 160 72 168 51 q 500 349 450 304 z "},"?":{"ha":499,"x_min":83,"x_max":503,"o":"m 196 163 q 245 142 225 163 q 265 89 265 122 q 238 17 265 49 q 174 -14 210 -14 q 125 8 144 -14 q 106 61 106 29 q 132 133 106 103 q 196 163 158 163 m 247 276 q 192 263 215 263 q 140 331 140 263 q 163 423 140 378 q 212 498 185 468 q 281 570 239 528 q 343 640 322 613 q 401 786 401 717 q 375 851 401 829 q 306 872 349 872 q 203 843 253 872 q 139 768 154 814 q 83 819 83 778 q 148 913 83 876 q 296 950 213 950 q 442 907 382 950 q 503 778 503 864 q 421 590 503 679 q 363 535 403 571 q 301 476 322 499 q 260 413 279 453 q 242 329 242 374 q 247 276 242 303 z "},"@":{"ha":1161,"x_min":125,"x_max":1064,"o":"m 467 75 q 376 114 410 75 q 342 228 342 153 q 431 494 342 372 q 635 615 521 615 q 829 551 754 615 q 739 217 739 304 q 779 163 739 163 q 902 263 843 163 q 961 499 961 364 q 704 742 961 742 q 459 655 574 742 q 282 442 344 568 q 219 194 219 317 q 285 6 219 79 q 483 -67 351 -67 q 618 -36 556 -67 q 710 44 681 -6 q 763 -15 763 24 q 674 -112 763 -72 q 475 -151 586 -151 q 213 -58 301 -151 q 125 183 125 36 q 172 405 125 292 q 297 610 218 518 q 492 760 376 701 q 736 819 608 819 q 977 737 890 819 q 1064 522 1064 654 q 1010 315 1064 417 q 881 155 956 214 q 743 96 806 96 q 679 123 704 96 q 649 203 654 150 q 467 75 563 75 m 650 283 q 683 412 661 324 q 706 504 704 500 q 619 543 665 543 q 496 456 549 543 q 443 258 443 369 q 501 160 443 160 q 576 192 535 160 q 650 283 617 224 z "},"A":{"ha":733,"x_min":-14,"x_max":710,"o":"m 435 790 q 385 678 419 757 q 317 522 351 599 q 247 372 282 444 q 400 369 347 369 q 515 372 478 369 q 435 790 490 485 m 367 288 q 208 290 336 288 q 161 186 193 257 q 107 66 129 115 q 74 -18 85 17 q 15 -2 43 -17 q -14 39 -14 13 q 15 110 -14 51 q 100 281 43 168 q 193 467 157 393 q 386 915 354 801 q 449 921 436 921 q 497 906 482 921 q 521 847 513 890 q 542 729 525 829 q 576 547 560 629 q 611 389 593 464 q 710 14 672 121 q 642 -14 671 -14 q 590 24 599 -14 q 533 290 571 111 q 367 288 394 288 z "},"B":{"ha":707,"x_min":71,"x_max":671,"o":"m 368 850 q 286 844 339 850 q 253 532 268 661 q 315 529 292 529 q 557 715 557 529 q 368 850 557 850 m 328 71 q 473 132 413 71 q 533 293 533 193 q 482 417 533 375 q 353 460 431 460 q 242 453 276 460 q 182 121 221 306 q 244 86 201 101 q 328 71 288 71 m 71 78 q 149 538 110 232 q 182 917 182 794 q 388 935 278 935 q 592 889 513 935 q 671 736 671 843 q 635 593 671 657 q 536 503 600 529 q 647 315 647 444 q 557 76 647 167 q 340 -14 467 -14 q 71 78 156 -14 z "},"C":{"ha":718,"x_min":67,"x_max":739,"o":"m 593 186 q 653 121 653 161 q 575 27 653 68 q 392 -14 497 -14 q 153 90 240 -14 q 67 367 67 193 q 194 776 67 618 q 525 935 322 935 q 678 895 617 935 q 739 797 739 856 q 716 741 739 763 q 657 714 693 719 q 596 816 642 782 q 493 850 550 850 q 269 714 357 850 q 182 399 182 578 q 240 163 182 254 q 408 71 297 71 q 593 186 522 71 z "},"D":{"ha":808,"x_min":71,"x_max":782,"o":"m 71 74 q 144 499 111 258 q 182 918 178 739 q 379 935 257 935 q 782 561 782 935 q 731 283 782 411 q 573 70 679 154 q 326 -14 467 -14 q 71 74 154 -14 m 289 844 q 186 121 257 461 q 342 71 247 71 q 496 116 429 71 q 597 233 563 161 q 649 380 632 304 q 665 531 665 456 q 588 770 665 690 q 367 850 511 850 q 289 844 342 850 z "},"E":{"ha":629,"x_min":83,"x_max":650,"o":"m 631 806 q 403 835 564 835 q 285 831 356 835 q 251 536 282 765 q 488 542 442 536 q 490 511 490 519 q 428 450 490 454 q 239 449 394 449 q 201 85 201 156 q 290 82 240 82 q 442 92 365 82 q 544 114 519 101 q 556 56 556 76 q 512 6 556 15 q 344 -4 468 -4 q 133 -1 169 -4 q 94 11 106 0 q 83 47 83 22 q 130 425 83 86 q 176 876 176 764 q 175 911 176 901 q 443 924 311 924 q 643 903 622 924 q 650 876 650 894 q 631 806 650 840 z "},"F":{"ha":603,"x_min":83,"x_max":658,"o":"m 208 7 q 142 -4 183 -4 q 83 54 83 -4 q 90 113 83 64 q 113 279 97 161 q 144 522 129 397 q 178 876 178 776 q 176 911 178 901 q 451 924 313 924 q 651 903 631 924 q 658 876 658 894 q 639 806 658 840 q 411 835 572 835 q 286 831 357 835 q 253 536 283 765 q 489 542 443 536 q 492 511 492 519 q 429 450 492 454 q 242 449 396 449 q 203 92 203 158 q 208 7 203 44 z "},"G":{"ha":763,"x_min":67,"x_max":739,"o":"m 594 418 q 646 422 619 422 q 707 379 707 422 q 700 335 707 371 q 683 237 693 299 q 665 118 672 175 q 576 24 654 61 q 392 -14 499 -14 q 153 90 240 -14 q 67 367 67 193 q 194 776 67 618 q 525 935 322 935 q 678 895 617 935 q 739 797 739 856 q 716 741 739 763 q 657 714 693 719 q 596 816 642 782 q 493 850 550 850 q 269 714 357 850 q 182 399 182 578 q 240 163 182 254 q 408 71 297 71 q 567 126 500 71 q 594 418 586 297 z "},"H":{"ha":832,"x_min":83,"x_max":808,"o":"m 747 925 q 808 879 808 925 q 801 834 808 872 q 782 719 794 796 q 760 561 769 642 l 724 282 q 707 92 707 160 q 713 7 707 44 q 646 -4 688 -4 q 588 54 588 -4 q 594 108 588 64 q 609 217 600 151 q 624 321 618 282 l 640 461 q 443 458 576 458 q 242 461 300 458 l 219 282 q 203 92 203 160 q 208 7 203 44 q 142 -4 183 -4 q 83 54 83 -4 q 90 108 83 64 q 105 217 96 151 q 119 321 114 282 l 154 599 q 186 921 181 807 q 243 925 208 925 q 304 879 304 925 q 297 833 304 872 q 277 713 290 794 q 253 543 264 631 q 456 540 313 540 q 651 543 592 540 q 690 921 685 808 q 747 925 713 925 z "},"I":{"ha":328,"x_min":83,"x_max":304,"o":"m 243 925 q 304 879 304 925 q 297 834 304 872 q 278 719 290 796 q 256 561 265 642 l 219 282 q 203 92 203 160 q 208 7 203 44 q 142 -4 183 -4 q 83 54 83 -4 q 90 115 83 64 q 116 303 97 165 q 154 599 135 442 q 186 921 181 807 q 243 925 208 925 z "},"J":{"ha":431,"x_min":0,"x_max":407,"o":"m 50 -165 q 0 -100 0 -165 q 1 -78 0 -86 q 143 -12 108 -68 q 197 189 178 43 l 254 599 q 289 921 281 789 q 347 925 314 925 q 407 882 407 925 q 399 826 407 868 q 377 715 390 783 q 356 585 364 646 l 296 154 q 260 18 285 78 q 206 -75 235 -42 q 145 -130 178 -108 q 90 -158 113 -151 q 50 -165 67 -165 z "},"K":{"ha":690,"x_min":83,"x_max":690,"o":"m 243 925 q 304 879 304 925 q 297 834 304 872 q 278 719 290 796 q 256 561 265 642 l 250 521 q 508 755 433 664 q 610 928 583 846 q 690 872 690 917 q 588 710 690 819 q 350 486 486 601 q 450 285 383 408 q 554 115 517 161 q 626 76 588 76 q 668 81 653 76 q 674 44 674 60 q 588 -14 674 -14 q 467 65 522 -14 q 361 240 422 129 q 269 422 300 350 q 249 406 263 415 q 233 396 235 397 l 219 282 q 203 92 203 160 q 208 7 203 44 q 142 -4 183 -4 q 83 54 83 -4 q 90 115 83 64 q 116 303 97 165 q 154 599 135 442 q 186 921 181 807 q 243 925 208 925 z "},"L":{"ha":536,"x_min":83,"x_max":536,"o":"m 157 625 q 185 921 174 750 q 240 925 206 925 q 303 881 303 925 q 295 826 303 872 q 275 703 288 779 q 254 561 263 626 q 201 113 203 174 q 201 86 201 100 q 271 83 240 83 q 423 93 346 83 q 525 115 500 103 q 536 57 536 78 q 492 7 536 17 q 325 -3 449 -3 q 133 0 169 -3 q 94 13 106 1 q 83 49 83 25 q 157 625 83 75 z "},"M":{"ha":1056,"x_min":83,"x_max":1032,"o":"m 967 606 l 921 282 q 901 82 901 154 q 907 7 901 54 q 838 -4 882 -4 q 781 49 781 -4 q 795 150 781 56 q 835 419 810 244 q 882 747 861 594 q 531 3 715 464 q 489 -3 517 -3 q 431 33 439 -3 q 365 356 411 106 q 274 751 318 606 q 251 592 263 676 q 232 461 239 507 q 217 361 225 415 q 206 281 210 307 q 199 223 203 256 q 193 176 194 190 q 190 142 192 161 q 188 110 188 122 q 188 82 188 97 q 193 7 188 54 q 135 -4 168 -4 q 83 44 83 -4 q 122 321 83 56 l 172 671 q 186 847 186 771 q 182 915 186 883 q 264 926 224 926 q 347 860 321 926 q 401 692 376 783 q 440 535 426 600 q 474 362 453 471 q 506 197 494 253 q 846 860 671 592 q 958 926 889 926 q 1032 915 1006 926 q 967 606 999 832 z "},"N":{"ha":806,"x_min":83,"x_max":782,"o":"m 671 1 q 625 -4 650 -4 q 564 33 581 -4 q 432 352 528 115 q 267 742 336 589 q 240 544 257 669 q 214 348 224 419 q 197 199 204 276 q 189 82 189 121 q 194 7 189 54 q 142 -4 169 -4 q 96 8 108 -4 q 83 49 83 21 q 90 106 83 61 q 105 215 96 150 q 119 321 114 281 q 142 493 129 397 q 160 638 154 589 q 172 741 167 686 q 176 839 176 796 q 171 915 176 883 q 236 926 197 926 q 303 886 275 926 q 600 218 408 726 l 647 599 q 679 921 671 781 q 724 925 700 925 q 782 878 782 925 q 774 823 782 868 q 753 702 765 778 q 733 561 742 626 q 708 365 725 493 q 683 155 692 236 q 671 1 675 74 z "},"O":{"ha":872,"x_min":67,"x_max":846,"o":"m 394 -14 q 153 88 240 -14 q 67 365 67 190 q 191 772 67 608 q 514 936 315 936 q 758 835 669 936 q 846 558 846 735 q 721 153 846 319 q 394 -14 596 -14 m 503 850 q 269 719 356 850 q 182 400 182 589 q 237 163 182 257 q 407 69 292 69 q 585 137 510 69 q 694 306 660 204 q 729 529 729 408 q 674 758 729 667 q 503 850 619 850 z "},"P":{"ha":690,"x_min":83,"x_max":676,"o":"m 354 422 q 509 497 456 422 q 563 686 563 571 q 514 815 563 779 q 375 850 465 850 q 286 844 326 850 q 256 561 278 724 l 242 457 q 354 422 292 422 m 119 321 l 154 599 q 179 918 179 814 q 372 935 272 935 q 676 689 676 935 q 583 432 676 526 q 371 338 490 338 q 232 382 288 338 l 219 282 q 203 88 203 157 q 208 7 203 42 q 142 -4 183 -4 q 83 54 83 -4 q 90 110 83 67 q 106 219 96 154 q 119 321 115 283 z "},"Q":{"ha":874,"x_min":67,"x_max":982,"o":"m 503 850 q 269 719 356 850 q 182 400 182 589 q 237 163 182 257 q 407 69 292 69 q 585 137 510 69 q 694 306 660 204 q 729 529 729 408 q 674 758 729 667 q 503 850 619 850 m 438 -11 q 547 -134 468 -86 q 718 -182 625 -182 q 922 -68 865 -182 q 982 -143 982 -99 q 917 -240 982 -206 q 756 -275 853 -275 q 501 -211 613 -275 q 351 -11 390 -147 q 142 103 217 3 q 67 365 67 203 q 191 772 67 608 q 514 936 315 936 q 758 835 669 936 q 846 558 846 735 q 734 170 846 333 q 438 -11 622 7 z "},"R":{"ha":717,"x_min":83,"x_max":689,"o":"m 557 117 q 636 76 586 76 q 683 81 663 76 q 689 50 689 65 q 597 -14 689 -14 q 471 53 511 -14 q 393 211 438 108 q 325 386 349 314 q 288 415 288 394 q 303 456 288 432 q 353 447 326 447 q 507 512 451 447 q 563 688 563 576 q 519 817 563 785 q 379 850 476 850 q 286 844 324 850 q 260 596 278 736 l 219 282 q 203 86 203 157 q 208 7 203 40 q 142 -4 183 -4 q 83 54 83 -4 q 90 112 83 68 q 106 219 96 156 q 119 321 115 283 l 154 599 q 179 918 179 801 q 374 935 272 935 q 485 924 435 935 q 581 887 536 913 q 651 813 626 861 q 676 699 676 765 q 608 488 676 575 q 435 385 539 400 q 493 233 457 314 q 557 117 529 151 z "},"S":{"ha":639,"x_min":35,"x_max":639,"o":"m 558 738 q 493 813 543 783 q 386 843 443 843 q 268 797 317 843 q 219 665 219 751 q 258 576 219 610 q 351 526 296 543 q 460 490 406 510 q 553 425 515 469 q 592 308 592 381 q 504 71 592 156 q 269 -14 417 -14 q 106 22 176 -14 q 35 106 35 57 q 107 190 35 158 q 182 106 125 139 q 303 74 239 74 q 435 126 379 74 q 492 269 492 178 q 453 355 492 324 q 360 402 415 386 q 250 438 306 418 q 156 507 194 458 q 118 635 118 556 q 207 853 118 775 q 431 932 296 932 q 573 901 507 932 q 639 817 639 871 q 558 738 639 753 z "},"T":{"ha":567,"x_min":63,"x_max":650,"o":"m 64 831 q 63 851 63 839 q 77 901 63 886 q 125 917 92 915 q 260 918 157 918 l 407 918 q 647 922 603 918 q 650 894 650 908 q 635 853 650 865 q 588 838 621 840 q 411 836 549 836 q 369 561 381 650 l 333 282 q 317 92 317 160 q 322 7 317 44 q 256 -4 297 -4 q 197 54 197 -4 q 214 189 197 71 q 255 496 231 307 q 294 836 279 685 q 64 831 124 836 z "},"U":{"ha":828,"x_min":110,"x_max":804,"o":"m 625 381 q 686 921 681 804 q 743 925 708 925 q 804 879 804 925 q 797 834 804 872 q 778 719 790 796 q 756 561 765 642 l 719 282 q 703 92 703 160 q 708 7 703 44 q 642 -4 683 -4 q 583 54 583 -4 q 600 183 583 67 q 460 38 540 89 q 304 -14 381 -14 q 160 53 211 -14 q 110 218 110 119 q 144 516 110 253 q 186 921 179 779 q 243 925 208 925 q 304 879 304 925 q 298 838 304 875 q 280 727 292 800 q 258 585 268 654 q 217 228 217 278 q 242 128 217 169 q 322 86 268 86 q 489 170 399 86 q 625 381 579 254 z "},"V":{"ha":764,"x_min":111,"x_max":778,"o":"m 157 724 q 119 903 157 825 q 207 936 169 936 q 278 804 278 936 q 246 544 278 733 q 214 265 214 354 q 265 67 214 118 q 451 197 360 79 q 594 472 542 315 q 646 760 646 628 q 622 907 646 846 q 706 936 668 936 q 778 825 778 936 q 755 642 778 749 q 685 422 732 536 q 578 210 639 307 q 434 49 518 113 q 261 -14 350 -14 q 197 1 228 -14 q 111 265 111 93 q 134 482 111 354 q 157 724 157 610 z "},"W":{"ha":1218,"x_min":111,"x_max":1232,"o":"m 157 724 q 119 903 157 825 q 207 936 169 936 q 278 804 278 936 q 246 544 278 733 q 214 265 214 354 q 265 67 214 118 q 444 191 357 79 q 581 451 531 303 q 631 724 631 599 q 607 863 631 806 q 690 890 654 890 q 763 785 763 890 q 688 442 763 639 q 682 301 682 350 q 735 67 682 118 q 913 197 826 79 q 1050 472 1000 315 q 1100 760 1100 628 q 1076 907 1100 846 q 1160 936 1122 936 q 1232 825 1232 936 q 1209 642 1232 749 q 1141 422 1186 536 q 1038 210 1096 307 q 897 49 979 113 q 729 -14 815 -14 q 667 1 697 -14 q 582 221 590 81 q 260 -14 435 -14 q 197 1 228 -14 q 111 265 111 93 q 134 482 111 354 q 157 724 157 610 z "},"X":{"ha":715,"x_min":8,"x_max":736,"o":"m 701 64 q 613 -14 658 -14 q 575 -1 594 -14 q 538 38 556 11 q 503 92 519 64 q 469 162 488 119 q 438 236 451 204 q 406 316 425 268 q 376 390 388 364 q 210 186 297 311 q 96 -14 122 61 q 8 51 8 7 q 31 117 8 76 q 101 214 54 157 q 179 308 147 271 q 272 409 211 344 q 340 483 332 474 q 222 739 260 675 q 113 858 185 803 q 174 929 143 913 q 201 936 186 936 q 240 922 221 936 q 281 875 260 908 q 317 816 303 842 q 355 737 332 790 q 388 659 378 683 q 419 576 397 635 q 564 774 499 669 q 644 936 629 879 q 736 865 736 914 q 458 483 736 796 q 519 323 497 378 q 592 187 540 268 q 701 64 643 106 z "},"Y":{"ha":640,"x_min":69,"x_max":710,"o":"m 69 860 q 88 881 75 865 q 106 900 101 896 q 121 913 111 904 q 139 924 131 921 q 157 926 147 926 q 214 879 194 926 q 363 513 272 765 q 515 742 433 601 q 607 933 597 882 q 710 876 710 933 q 597 685 710 842 q 392 419 485 529 l 374 282 q 357 92 357 160 q 363 7 357 44 q 296 -4 338 -4 q 238 54 238 -4 q 242 97 238 63 q 260 226 247 132 q 286 419 274 321 q 69 860 156 788 z "},"Z":{"ha":710,"x_min":56,"x_max":707,"o":"m 196 926 q 375 908 236 926 q 581 889 514 889 q 675 907 643 889 q 707 826 707 875 q 679 738 707 769 l 292 286 q 161 114 213 192 q 196 115 172 115 q 363 98 247 115 q 528 81 479 81 q 651 103 608 81 q 667 57 667 76 q 531 -14 667 -14 q 380 3 494 -14 q 203 21 265 21 q 93 4 138 21 q 56 85 56 53 q 81 165 56 117 q 594 799 163 311 q 419 816 539 799 q 236 833 299 833 q 119 807 172 833 q 103 860 103 847 q 196 926 103 926 z "},"[":{"ha":529,"x_min":119,"x_max":557,"o":"m 378 922 l 221 -186 q 333 -183 275 -183 q 389 -221 389 -183 q 378 -264 389 -239 l 119 -264 l 296 1000 l 554 1000 q 557 978 557 986 q 490 919 557 919 q 378 922 428 919 z "},"\\":{"ha":358,"x_min":49,"x_max":300,"o":"m 179 157 q 49 993 49 972 q 99 1031 49 1031 q 128 1026 115 1031 q 169 704 139 907 l 238 269 q 300 -131 300 -121 q 254 -169 300 -169 q 221 -165 239 -169 q 179 157 210 -46 z "},"]":{"ha":500,"x_min":-28,"x_max":407,"o":"m 149 -186 l 306 922 q 193 919 253 919 q 138 957 138 919 q 149 1000 138 975 l 407 1000 l 231 -264 l -26 -264 q -28 -242 -28 -256 q 39 -183 -28 -183 q 149 -186 97 -183 z "},"^":{"ha":653,"x_min":35,"x_max":618,"o":"m 328 808 q 72 579 114 579 q 35 601 57 579 q 166 767 67 656 q 326 938 265 878 q 487 767 388 878 q 618 601 586 656 q 582 579 596 579 q 558 588 574 579 q 523 615 543 597 q 483 649 503 632 q 439 692 464 667 q 398 735 414 718 q 358 776 382 751 q 328 808 335 801 z "},"_":{"ha":743,"x_min":0,"x_max":743,"o":"m 743 -153 q 729 -194 743 -178 q 693 -211 715 -211 q 597 -206 672 -211 q 483 -200 522 -200 l 285 -200 q 4 -211 126 -200 q 0 -169 0 -190 q 13 -129 0 -147 q 50 -111 25 -111 q 138 -116 54 -111 q 282 -121 221 -121 l 479 -121 q 739 -111 656 -121 q 743 -153 743 -124 z "},"`":{"ha":279,"x_min":-71,"x_max":193,"o":"m -36 860 q -71 910 -71 882 q -22 974 -71 947 q 24 926 -6 953 q 78 881 53 900 q 132 839 103 861 q 167 813 161 817 q 193 774 193 793 q 171 729 193 751 q 75 791 153 744 q -36 860 -3 838 z "},"a":{"ha":661,"x_min":39,"x_max":597,"o":"m 443 144 q 344 27 403 68 q 224 -14 286 -14 q 90 49 142 -14 q 39 231 39 113 q 128 532 39 406 q 349 658 218 658 q 597 579 490 658 q 533 138 533 268 q 578 50 533 81 q 507 -14 558 -14 q 442 99 442 -14 q 443 144 442 129 m 453 263 q 493 526 471 388 q 350 589 422 589 q 205 496 263 589 q 147 254 147 403 q 174 113 147 171 q 251 56 201 56 q 356 113 297 56 q 453 263 414 171 z "},"b":{"ha":658,"x_min":60,"x_max":618,"o":"m 60 64 q 131 524 89 228 q 172 885 172 821 q 143 960 172 953 q 167 1006 146 981 q 215 1031 189 1031 q 276 939 276 1031 q 228 540 276 844 q 317 627 264 596 q 422 658 371 658 q 563 591 508 658 q 618 403 618 524 q 529 111 618 236 q 293 -14 440 -14 q 60 64 172 -14 m 208 408 q 164 117 208 403 q 301 54 231 54 q 449 140 388 54 q 510 376 510 226 q 478 525 510 461 q 394 589 447 589 q 300 539 353 589 q 208 408 247 489 z "},"c":{"ha":574,"x_min":54,"x_max":560,"o":"m 493 492 q 442 560 481 538 q 365 582 403 582 q 219 490 274 582 q 164 271 164 399 q 206 109 164 163 q 313 56 249 56 q 458 142 403 56 q 501 83 501 115 q 443 14 501 42 q 308 -14 385 -14 q 120 54 186 -14 q 54 250 54 122 q 157 551 54 443 q 389 658 260 658 q 505 633 450 658 q 560 560 560 608 q 493 492 560 503 z "},"d":{"ha":663,"x_min":40,"x_max":649,"o":"m 507 592 q 543 888 543 840 q 515 960 543 953 q 540 1005 518 979 q 589 1031 563 1031 q 649 943 649 1031 q 594 531 649 892 q 539 138 539 169 q 583 50 539 81 q 513 -14 564 -14 q 443 99 443 -14 q 444 144 443 131 q 346 27 404 68 q 225 -14 288 -14 q 92 49 143 -14 q 40 231 40 113 q 130 532 40 406 q 350 658 219 658 q 507 592 428 658 m 457 263 l 496 525 q 356 590 419 590 q 206 497 264 590 q 149 254 149 404 q 176 113 149 171 q 253 56 203 56 q 358 113 299 56 q 457 263 418 171 z "},"e":{"ha":585,"x_min":40,"x_max":543,"o":"m 444 142 q 488 83 488 115 q 429 14 488 42 q 294 -14 371 -14 q 106 54 172 -14 q 40 250 40 122 q 144 550 40 442 q 371 658 247 658 q 499 617 454 658 q 543 514 543 576 q 515 396 543 446 q 449 320 488 346 q 358 279 411 294 q 269 260 306 264 q 196 257 233 257 q 150 260 178 257 q 196 106 156 156 q 299 56 236 56 q 444 142 389 56 m 435 499 q 412 564 435 538 q 347 590 389 590 q 217 513 274 590 q 151 317 161 436 q 217 319 190 317 q 290 331 244 321 q 363 359 335 342 q 413 413 390 376 q 435 499 435 449 z "},"f":{"ha":439,"x_min":0,"x_max":578,"o":"m 511 831 q 393 913 488 913 q 290 834 326 913 q 247 644 254 756 q 436 651 349 644 q 440 624 440 636 q 374 571 440 572 q 239 569 342 569 q 164 -47 199 90 q 65 -182 129 -182 q 26 -165 44 -182 q 0 -117 8 -147 q 60 -40 33 -107 q 103 141 86 28 q 128 349 119 254 q 144 568 136 443 q 57 561 100 567 q 54 586 54 581 q 135 646 54 646 l 153 646 q 228 897 163 801 q 424 992 293 992 q 531 969 483 992 q 578 899 578 946 q 511 831 578 842 z "},"g":{"ha":632,"x_min":7,"x_max":597,"o":"m 251 56 q 354 112 297 56 q 453 263 411 168 q 493 526 471 388 q 350 589 426 589 q 202 490 257 589 q 147 254 147 392 q 176 110 147 165 q 251 56 204 56 m 349 660 q 597 581 492 660 q 506 56 532 308 q 414 -257 483 -162 q 175 -351 344 -351 q 56 -329 104 -351 q 7 -269 7 -307 q 68 -196 7 -225 q 116 -258 81 -235 q 197 -282 151 -282 q 424 111 399 -282 q 327 16 382 46 q 224 -14 272 -14 q 85 57 132 -14 q 39 231 39 128 q 128 532 39 404 q 349 660 218 660 z "},"h":{"ha":646,"x_min":64,"x_max":582,"o":"m 228 531 q 326 624 269 590 q 436 658 383 658 q 544 611 506 658 q 582 488 582 564 q 556 316 582 461 q 529 138 529 171 q 574 50 529 81 q 503 -14 554 -14 q 433 113 433 -14 q 459 313 433 172 q 485 482 485 454 q 466 559 485 531 q 414 588 447 588 q 294 524 360 588 q 201 379 229 461 q 172 83 172 156 q 176 7 172 42 q 118 -4 151 -4 q 64 43 64 -4 q 121 468 64 90 q 178 888 178 846 q 150 960 178 953 q 175 1005 153 979 q 224 1031 197 1031 q 283 943 283 1031 q 228 531 283 858 z "},"i":{"ha":279,"x_min":58,"x_max":261,"o":"m 183 724 q 140 742 157 724 q 124 789 124 760 q 147 848 124 824 q 201 872 171 872 q 244 853 226 872 q 261 804 261 833 q 236 747 261 771 q 183 724 211 724 m 167 658 q 226 571 226 658 q 190 344 226 519 q 154 138 154 169 q 199 50 154 81 q 128 -14 179 -14 q 58 113 58 -14 q 90 317 58 178 q 121 515 121 457 q 93 588 121 581 q 118 633 96 607 q 167 658 140 658 z "},"j":{"ha":303,"x_min":-275,"x_max":279,"o":"m 201 724 q 158 742 175 724 q 142 789 142 760 q 165 848 142 824 q 219 872 189 872 q 262 853 244 872 q 279 804 279 833 q 254 747 279 771 q 201 724 229 724 m 185 658 q 244 571 244 658 q 167 -12 244 471 q 76 -262 142 -172 q -125 -351 11 -351 q -231 -329 -187 -351 q -275 -269 -275 -307 q -214 -196 -275 -225 q -174 -258 -204 -235 q -107 -282 -144 -282 q 65 -42 26 -282 q 139 515 139 407 q 111 588 139 581 q 136 633 114 607 q 185 658 158 658 z "},"k":{"ha":628,"x_min":64,"x_max":601,"o":"m 219 515 q 443 658 311 658 q 560 619 519 658 q 601 518 601 579 q 538 356 601 433 q 376 271 474 278 q 453 117 428 150 q 533 76 482 76 q 572 81 551 76 q 578 44 578 53 q 489 -14 578 -14 q 446 -5 467 -14 q 408 24 425 4 q 376 62 390 43 q 348 113 363 81 q 324 165 333 144 q 301 222 315 186 q 279 275 286 258 q 247 304 247 286 q 265 342 247 321 q 342 324 306 324 q 449 374 407 324 q 492 489 492 424 q 472 560 492 532 q 411 589 451 589 q 297 527 364 589 q 201 379 231 465 q 172 83 172 156 q 176 7 172 42 q 118 -4 151 -4 q 64 43 64 -4 q 74 131 64 60 q 99 307 83 201 q 122 465 115 413 q 171 888 171 814 q 143 960 171 953 q 168 1005 146 979 q 217 1031 190 1031 q 276 943 276 1031 q 265 821 276 910 q 238 634 253 732 q 219 515 222 536 z "},"l":{"ha":283,"x_min":64,"x_max":269,"o":"m 210 1031 q 269 943 269 1031 q 215 531 269 892 q 160 138 160 169 q 204 50 160 81 q 133 -14 185 -14 q 64 113 64 -14 q 114 504 64 178 q 164 888 164 831 q 136 960 164 953 q 161 1005 139 979 q 210 1031 183 1031 z "},"m":{"ha":979,"x_min":64,"x_max":915,"o":"m 549 379 q 519 83 519 156 q 524 7 519 42 q 465 -4 499 -4 q 411 43 411 -4 q 440 262 411 67 q 469 483 469 457 q 450 561 469 535 q 401 588 431 588 q 288 524 350 588 q 201 379 226 461 q 172 83 172 156 q 176 7 172 42 q 118 -4 151 -4 q 64 43 64 -4 q 94 272 64 67 q 125 513 125 476 q 96 588 125 579 q 121 633 99 607 q 169 658 143 658 q 226 572 226 658 q 222 522 226 547 q 319 623 263 588 q 426 658 375 658 q 523 617 488 658 q 564 508 558 575 q 662 618 601 578 q 776 658 722 658 q 878 610 842 658 q 915 488 915 563 q 890 316 915 461 q 865 138 865 171 q 907 50 865 79 q 836 -14 888 -14 q 767 113 767 -14 q 792 313 767 172 q 818 482 818 454 q 800 559 818 531 q 751 588 782 588 q 637 524 700 588 q 549 379 574 461 z "},"n":{"ha":646,"x_min":64,"x_max":582,"o":"m 201 379 q 172 83 172 156 q 176 7 172 42 q 118 -4 151 -4 q 64 43 64 -4 q 94 270 64 63 q 125 511 125 478 q 96 588 125 575 q 121 633 99 607 q 169 658 143 658 q 226 572 226 658 q 222 522 226 547 q 323 623 264 588 q 436 658 382 658 q 544 611 506 658 q 582 488 582 564 q 556 316 582 461 q 529 138 529 171 q 574 50 529 81 q 503 -14 554 -14 q 433 113 433 -14 q 459 313 433 172 q 485 482 485 454 q 466 559 485 531 q 414 588 447 588 q 294 524 360 588 q 201 379 229 461 z "},"o":{"ha":660,"x_min":40,"x_max":619,"o":"m 282 -14 q 104 57 168 -14 q 40 251 40 128 q 134 540 40 422 q 372 658 228 658 q 553 587 488 658 q 619 390 619 515 q 523 103 619 221 q 282 -14 426 -14 m 364 589 q 206 492 264 589 q 149 269 149 396 q 187 116 149 176 q 296 56 225 56 q 453 150 396 56 q 510 369 510 244 q 472 527 510 465 q 364 589 435 589 z "},"p":{"ha":660,"x_min":18,"x_max":619,"o":"m 210 408 q 196 322 204 369 q 177 212 188 274 q 161 117 167 150 q 297 54 225 54 q 448 144 385 54 q 511 390 511 235 q 481 535 511 481 q 400 589 451 589 q 304 539 358 589 q 210 408 250 489 m 171 660 q 231 572 231 660 q 228 532 231 565 q 428 658 310 658 q 566 599 513 658 q 619 414 619 539 q 523 108 619 229 q 304 -14 426 -14 q 150 47 219 -14 q 114 -204 114 -160 q 151 -293 114 -249 q 76 -351 115 -351 q 29 -324 40 -351 q 18 -243 18 -296 q 72 147 18 -161 q 125 514 125 456 q 97 589 125 582 q 122 634 100 608 q 171 660 144 660 z "},"q":{"ha":633,"x_min":40,"x_max":599,"o":"m 454 263 q 494 526 472 388 q 351 589 424 589 q 206 496 264 589 q 149 254 149 403 q 176 113 149 171 q 253 56 203 56 q 357 113 299 56 q 454 263 415 171 m 599 579 q 519 160 571 472 q 468 -201 468 -151 q 513 -289 468 -258 q 442 -353 493 -353 q 372 -226 372 -353 q 425 111 372 -164 q 225 -14 343 -14 q 92 49 143 -14 q 40 231 40 113 q 130 532 40 406 q 350 658 219 658 q 599 579 492 658 z "},"r":{"ha":461,"x_min":63,"x_max":476,"o":"m 197 356 q 171 83 171 154 q 175 7 171 42 q 117 -4 150 -4 q 63 43 63 -4 q 113 401 63 65 q 125 515 125 494 q 97 588 125 581 q 122 633 100 607 q 171 658 144 658 q 228 572 228 658 q 219 494 228 544 q 303 603 242 547 q 419 658 364 658 q 476 607 476 658 q 440 532 476 564 q 382 558 415 558 q 299 518 340 558 q 234 435 257 478 q 197 356 211 393 z "},"s":{"ha":511,"x_min":7,"x_max":476,"o":"m 411 492 q 362 557 403 532 q 272 582 321 582 q 185 553 222 582 q 147 471 147 524 q 178 408 147 431 q 255 374 210 385 q 344 349 300 364 q 420 297 389 335 q 451 194 451 258 q 379 39 451 92 q 194 -14 307 -14 q 63 15 119 -14 q 7 88 7 44 q 72 156 7 139 q 126 88 81 111 q 232 64 171 64 q 335 94 297 64 q 372 167 372 124 q 341 233 372 208 q 265 272 310 258 q 174 300 219 285 q 98 352 129 315 q 67 447 67 389 q 139 606 67 553 q 314 660 211 660 q 424 634 372 660 q 476 561 476 608 q 411 492 476 508 z "},"t":{"ha":436,"x_min":25,"x_max":474,"o":"m 106 646 l 151 646 q 161 724 153 665 q 171 800 169 783 q 215 806 196 806 q 269 763 269 806 q 265 732 269 754 q 256 682 261 710 q 250 644 251 654 q 469 651 375 644 q 474 624 474 636 q 407 571 474 572 q 238 569 363 569 q 186 167 186 218 q 208 81 186 103 q 276 60 229 60 q 376 101 325 60 q 399 54 399 79 q 360 3 399 21 q 268 -14 321 -14 q 94 174 94 -14 q 103 268 94 204 q 125 427 111 332 q 144 569 139 522 q 28 561 119 569 q 25 586 25 581 q 106 646 25 646 z "},"u":{"ha":657,"x_min":74,"x_max":601,"o":"m 442 144 q 348 32 407 78 q 219 -14 289 -14 q 112 33 150 -14 q 74 157 74 81 q 100 328 74 183 q 126 507 126 474 q 97 588 126 576 q 124 635 103 611 q 171 658 144 658 q 216 631 206 658 q 226 547 226 604 q 199 347 226 488 q 171 163 171 206 q 190 85 171 114 q 242 57 208 57 q 361 120 296 57 q 454 265 426 183 q 501 644 496 542 q 547 651 526 651 q 601 607 601 651 q 567 385 601 593 q 532 129 532 176 q 576 50 532 78 q 552 6 569 26 q 507 -14 535 -14 q 440 97 440 -14 q 442 144 440 129 z "},"v":{"ha":558,"x_min":71,"x_max":558,"o":"m 99 508 q 72 635 99 579 q 147 658 117 658 q 208 565 208 658 q 186 381 208 515 q 164 183 164 246 q 190 56 164 94 q 298 113 246 61 q 383 235 350 164 q 437 380 417 306 q 457 508 457 454 q 436 638 457 594 q 504 658 472 658 q 558 568 558 658 q 530 407 558 503 q 453 216 501 311 q 331 53 406 121 q 176 -14 256 -14 q 126 -3 149 -14 q 71 183 71 57 q 85 337 71 246 q 99 508 99 428 z "},"w":{"ha":871,"x_min":71,"x_max":871,"o":"m 99 508 q 72 635 99 579 q 147 658 117 658 q 208 565 208 658 q 186 381 208 515 q 164 183 164 246 q 189 56 164 96 q 319 141 258 61 q 410 315 379 221 q 440 481 440 410 q 419 601 440 560 q 488 622 456 622 q 542 536 542 622 q 500 340 542 458 q 497 274 500 326 q 493 192 493 221 q 518 56 493 99 q 648 147 588 63 q 739 333 708 232 q 769 508 769 433 q 749 638 769 594 q 817 658 783 658 q 871 568 871 658 q 843 407 871 503 q 769 216 815 311 q 651 53 724 121 q 501 -14 579 -14 q 454 -3 475 -14 q 401 140 408 47 q 172 -14 296 -14 q 125 -3 146 -14 q 71 183 71 57 q 85 337 71 246 q 99 508 99 428 z "},"x":{"ha":553,"x_min":15,"x_max":515,"o":"m 67 556 q 61 589 61 575 q 78 638 61 618 q 121 658 96 658 q 306 399 211 658 q 438 657 425 553 q 456 658 443 658 q 499 644 483 658 q 515 608 515 631 q 333 335 515 543 q 358 274 343 313 q 382 214 374 235 q 405 165 390 193 q 432 124 419 138 q 463 99 444 110 q 504 89 482 89 q 510 56 510 69 q 492 6 510 26 q 450 -14 475 -14 q 392 14 421 -14 q 335 94 363 42 q 294 177 307 147 q 260 257 281 207 q 88 -8 100 82 q 72 -10 82 -10 q 31 5 46 -10 q 15 43 15 19 q 233 321 15 113 q 217 363 228 335 q 201 403 207 390 q 186 439 196 417 q 170 472 176 461 q 154 499 164 483 q 136 524 144 515 q 117 540 128 532 q 93 552 106 549 q 67 556 81 556 z "},"y":{"ha":571,"x_min":-250,"x_max":550,"o":"m 283 100 q 446 549 446 368 q 426 638 446 588 q 492 658 463 658 q 550 567 550 658 q 479 301 550 463 q 308 -10 408 139 q 113 -247 197 -175 q -99 -319 28 -319 q -206 -297 -161 -319 q -250 -237 -250 -275 q -189 -164 -250 -193 q -144 -226 -178 -203 q -67 -250 -110 -250 q 15 -230 -25 -250 q 92 -171 56 -210 q 153 -98 128 -132 q 211 -14 179 -64 q 144 324 203 101 q 18 604 86 546 q 99 658 57 658 q 168 592 144 658 q 283 100 218 451 z "},"z":{"ha":543,"x_min":15,"x_max":536,"o":"m 143 658 q 278 645 174 658 q 433 632 383 632 q 513 644 488 632 q 536 586 536 622 q 513 524 536 549 q 133 93 249 243 q 157 94 142 94 q 270 82 193 94 q 381 69 347 69 q 469 86 436 69 q 481 43 481 68 q 379 -14 481 -14 q 267 -1 351 -14 q 135 11 182 11 q 42 -1 79 11 q 15 57 15 35 q 33 114 15 82 q 410 557 96 219 q 293 566 371 557 q 172 575 215 575 q 89 556 128 575 q 78 604 78 582 q 143 658 78 658 z "},"{":{"ha":579,"x_min":92,"x_max":600,"o":"m 251 397 q 303 348 281 386 q 326 268 326 310 q 305 99 326 249 q 283 -67 283 -50 q 303 -104 283 -93 q 381 -115 324 -115 q 443 -153 443 -115 q 431 -196 443 -174 q 381 -197 413 -197 q 233 -169 275 -197 q 192 -82 192 -142 q 213 99 192 -54 q 235 258 235 253 q 199 331 235 299 q 92 363 164 363 l 101 432 q 224 469 179 432 q 276 549 269 507 q 285 613 276 547 q 306 753 294 678 q 318 839 317 828 q 378 956 329 919 q 549 993 428 993 q 599 992 581 993 q 600 979 600 988 q 533 911 600 911 q 435 894 458 911 q 407 822 413 876 l 367 546 q 324 456 361 501 q 251 397 288 410 z "},"|":{"ha":797,"x_min":346,"x_max":453,"o":"m 357 189 l 357 617 q 346 1018 357 944 q 388 1022 368 1022 q 451 969 451 1022 q 449 895 451 964 q 444 713 447 826 q 442 488 442 600 l 442 60 q 453 -342 442 -268 q 411 -346 431 -346 q 347 -293 347 -346 q 350 -219 347 -287 q 355 -37 353 -150 q 357 189 357 76 z "},"}":{"ha":579,"x_min":-21,"x_max":486,"o":"m 325 397 q 273 449 296 408 q 250 529 250 489 q 272 689 250 535 q 293 863 293 843 q 273 900 293 889 q 196 911 253 911 q 135 949 135 911 q 147 992 135 969 q 197 993 165 993 q 344 965 303 993 q 386 878 386 938 q 365 701 386 856 q 343 538 343 547 q 378 465 343 497 q 486 432 414 432 l 476 363 q 353 326 399 363 q 301 247 308 289 q 292 183 301 249 q 272 44 282 117 q 260 -43 263 -28 q 199 -160 249 -124 q 29 -197 150 -197 q -19 -196 -1 -197 q -21 -182 -21 -192 q -4 -130 -21 -144 q 51 -115 13 -115 q 143 -98 124 -115 q 169 -26 163 -81 l 210 250 q 253 339 217 293 q 325 397 290 385 z "},"~":{"ha":758,"x_min":56,"x_max":703,"o":"m 56 371 q 192 457 56 457 q 373 429 263 457 q 535 401 483 401 q 676 450 626 401 q 703 382 703 415 q 653 317 703 338 q 535 296 603 296 q 386 324 492 296 q 224 351 281 351 q 82 303 132 351 q 56 371 56 338 z "},"¡":{"ha":411,"x_min":83,"x_max":328,"o":"m 258 660 q 308 640 288 660 q 328 586 328 619 q 300 515 328 546 q 236 483 272 483 q 188 505 207 483 q 168 558 168 526 q 194 630 168 600 q 258 660 221 660 m 83 -251 q 95 -174 83 -229 q 124 -30 107 -118 q 153 136 142 58 q 171 308 171 282 q 165 369 171 343 q 219 383 196 383 q 268 332 268 383 q 240 78 268 322 q 213 -257 213 -165 q 214 -293 213 -283 q 140 -304 169 -304 q 83 -251 83 -304 z "},"¢":{"ha":797,"x_min":118,"x_max":726,"o":"m 217 400 q 259 257 217 311 q 368 183 301 203 l 444 719 q 283 610 349 694 q 217 400 217 526 m 494 950 q 528 922 528 950 q 526 905 528 919 q 519 860 524 890 q 511 807 514 829 l 522 807 q 606 797 561 807 q 689 763 651 788 q 726 703 726 738 q 708 659 726 678 q 658 633 690 640 q 514 729 603 729 l 500 729 l 422 175 l 436 175 q 607 271 525 175 q 658 217 658 260 q 613 149 658 178 q 515 108 567 119 q 422 97 464 97 l 413 97 q 403 -19 406 40 l 381 -22 q 344 13 344 -22 q 357 101 344 25 q 185 188 251 118 q 118 383 118 257 q 215 669 118 560 q 456 801 313 778 q 469 946 469 915 q 494 950 486 950 z "},"£":{"ha":797,"x_min":49,"x_max":653,"o":"m 621 544 q 624 517 624 525 q 603 474 624 486 q 538 461 583 461 q 440 464 513 461 l 440 456 q 392 276 440 353 q 204 96 344 199 q 305 79 228 94 q 443 64 382 64 q 531 95 492 64 q 571 169 571 126 l 579 169 q 653 107 653 169 q 595 24 653 51 q 468 -4 538 -4 q 302 15 393 -4 q 163 35 211 35 q 144 32 153 35 q 85 -4 119 -4 q 59 6 69 -4 q 49 31 49 15 q 73 73 49 53 q 147 101 97 93 q 289 272 247 204 q 331 417 331 339 q 325 467 331 444 l 297 467 q 156 461 247 467 q 154 482 154 469 q 207 518 160 514 q 261 520 224 518 q 307 522 299 522 q 292 565 303 536 q 276 610 282 593 q 266 650 271 626 q 261 693 261 674 q 335 859 261 781 q 513 938 410 938 q 583 917 551 938 q 614 863 614 897 q 554 789 614 814 q 464 844 529 844 q 390 815 421 844 q 358 735 358 785 q 390 624 358 699 q 429 528 422 550 q 621 544 540 533 z "},"¥":{"ha":797,"x_min":83,"x_max":735,"o":"m 308 272 l 296 272 q 85 265 160 272 q 83 279 83 271 q 124 326 83 326 l 315 326 l 329 425 l 315 425 q 106 418 178 425 q 104 435 104 424 q 144 479 104 479 l 311 479 q 243 643 306 494 q 104 872 179 801 q 186 928 144 928 q 238 878 213 928 q 401 504 336 681 q 564 736 475 592 q 663 932 653 881 q 682 933 667 933 q 735 892 735 933 q 649 726 735 854 q 467 479 564 599 q 657 486 586 479 l 657 476 q 615 425 657 425 l 417 425 l 403 326 l 424 326 q 636 333 561 326 l 636 322 q 596 272 636 272 l 397 272 q 379 81 379 131 q 385 7 379 43 q 335 -4 360 -4 q 278 46 278 -4 q 281 83 278 56 q 293 165 285 110 q 308 272 301 221 z "},"¦":{"ha":797,"x_min":346,"x_max":453,"o":"m 357 742 l 357 783 q 346 1019 357 946 q 388 1024 368 1024 q 451 971 451 1024 q 447 871 451 964 q 442 733 442 778 l 442 679 q 453 413 442 513 q 411 408 431 408 q 347 461 347 408 q 352 582 347 468 q 357 742 357 696 m 357 -12 l 357 31 q 346 267 357 193 q 388 271 368 271 q 451 218 451 271 q 447 119 451 211 q 442 -19 442 26 l 442 -75 q 453 -342 442 -242 q 411 -346 431 -346 q 347 -293 347 -346 q 352 -172 347 -286 q 357 -12 357 -58 z "},"§":{"ha":576,"x_min":29,"x_max":576,"o":"m 183 471 q 224 390 183 422 q 328 326 264 358 q 422 261 392 293 q 453 357 453 301 q 413 438 453 407 q 308 499 372 468 q 214 564 244 529 q 183 471 183 525 m 100 432 q 183 611 100 538 q 165 704 165 651 q 237 872 165 810 q 411 933 308 933 q 523 907 469 933 q 576 833 576 881 q 510 765 576 783 q 460 831 501 806 q 369 856 418 856 q 281 825 317 856 q 246 736 246 794 q 276 655 246 689 q 349 599 306 621 q 434 554 392 578 q 506 491 476 531 q 536 394 536 451 q 454 215 536 288 q 472 133 472 179 q 397 -46 472 17 q 218 -108 322 -108 q 85 -78 142 -108 q 29 -4 29 -49 q 96 61 29 43 q 257 -29 113 -29 q 352 3 314 -29 q 390 100 390 36 q 360 178 390 146 q 288 233 331 211 q 202 276 244 254 q 130 338 160 299 q 100 432 100 376 z "},"¨":{"ha":357,"x_min":54,"x_max":424,"o":"m 114 724 q 71 742 88 724 q 54 789 54 760 q 78 848 54 824 q 132 872 101 872 q 174 853 157 872 q 192 804 192 833 q 167 747 192 771 q 114 724 142 724 m 346 724 q 303 742 319 724 q 286 789 286 760 q 310 848 286 824 q 364 872 333 872 q 406 853 389 872 q 424 804 424 833 q 399 747 424 771 q 346 724 374 724 z "},"©":{"ha":1233,"x_min":181,"x_max":1142,"o":"m 857 218 q 806 160 857 185 q 685 136 754 136 q 583 152 632 136 q 490 202 533 168 q 419 298 446 236 q 393 442 393 360 q 480 680 393 599 q 676 761 567 761 q 753 750 714 761 q 826 712 793 739 q 858 649 858 685 q 799 593 858 601 q 748 658 786 636 q 667 679 710 679 q 555 618 600 679 q 510 458 510 557 q 565 276 510 333 q 697 218 621 218 q 817 271 779 218 q 857 218 857 249 m 1042 444 q 931 742 1042 628 q 663 857 821 857 q 391 743 501 857 q 281 444 281 629 q 391 146 281 260 q 663 32 501 32 q 931 146 821 32 q 1042 444 1042 260 m 1142 444 q 1002 94 1142 236 q 663 -47 863 -47 q 319 94 458 -47 q 181 444 181 235 q 319 796 181 656 q 663 936 458 936 q 1003 796 864 936 q 1142 444 1142 656 z "},"ª":{"ha":429,"x_min":17,"x_max":361,"o":"m 194 418 q 336 428 290 418 q 338 413 338 422 q 322 372 338 389 q 283 356 307 356 q 231 361 272 356 q 169 367 190 367 q 18 356 85 367 q 17 371 17 361 q 71 428 17 428 q 117 423 74 428 q 194 418 161 418 m 143 796 q 106 826 106 806 q 149 875 106 857 q 243 893 193 893 q 332 873 303 893 q 361 801 361 853 q 349 692 361 778 q 336 574 336 607 q 339 533 336 558 q 306 528 328 528 q 272 561 272 528 q 171 522 222 522 q 67 608 67 522 q 149 717 67 693 q 294 736 208 733 q 299 782 299 764 q 282 831 299 817 q 225 846 265 846 q 143 796 169 846 m 289 699 q 260 695 279 697 q 233 692 242 693 q 208 688 224 690 q 186 683 193 685 q 169 676 179 681 q 153 667 158 672 q 143 655 149 661 q 135 640 138 649 q 133 619 133 631 q 188 568 133 568 q 272 603 235 568 l 278 638 q 289 699 286 689 z "},"«":{"ha":656,"x_min":83,"x_max":635,"o":"m 456 326 q 533 196 494 267 q 571 103 571 125 q 538 61 571 82 q 346 326 450 143 q 611 592 508 515 q 635 560 635 574 q 456 326 635 521 m 193 326 q 270 196 232 267 q 308 103 308 125 q 275 61 308 82 q 83 326 188 143 q 349 592 246 515 q 372 560 372 574 q 193 326 372 521 z "},"¬":{"ha":797,"x_min":106,"x_max":660,"o":"m 657 450 l 660 142 q 647 87 660 103 q 599 71 635 71 q 551 82 574 71 q 575 328 575 160 l 575 378 l 254 378 q 115 357 176 378 q 106 399 106 381 q 164 450 106 450 l 657 450 z "},"®":{"ha":843,"x_min":139,"x_max":774,"o":"m 624 427 q 658 462 624 427 q 692 611 692 497 q 624 795 692 725 q 457 865 556 865 q 289 795 357 865 q 221 611 221 725 q 289 427 221 497 q 457 357 357 357 q 624 427 556 357 m 681 842 q 727 795 681 842 q 774 611 774 749 q 681 381 774 474 q 457 288 589 288 q 231 381 322 288 q 139 611 139 474 q 231 842 139 750 q 457 935 322 935 q 681 842 589 935 m 569 500 q 600 489 581 489 q 603 474 603 483 q 569 449 603 449 q 508 483 532 449 q 476 528 504 490 q 438 583 447 567 q 407 588 421 583 l 407 551 q 418 458 407 490 q 376 451 406 451 q 333 483 333 451 q 335 519 333 488 q 336 567 336 551 l 336 663 q 331 775 336 735 q 443 782 417 782 q 593 682 593 782 q 504 589 593 607 q 569 500 532 542 m 444 618 q 501 633 478 618 q 524 682 524 649 q 438 738 524 738 q 406 735 428 738 q 407 624 407 721 q 444 618 435 618 z "},"¯":{"ha":486,"x_min":135,"x_max":496,"o":"m 314 846 l 343 846 q 496 854 429 846 q 447 765 496 765 q 421 767 443 765 q 365 772 399 769 q 300 774 331 774 l 271 774 q 135 765 193 774 q 182 854 135 854 q 238 850 186 854 q 314 846 289 846 z "},"°":{"ha":494,"x_min":65,"x_max":490,"o":"m 301 910 q 197 855 238 910 q 156 729 156 800 q 181 647 156 678 q 256 615 207 615 q 358 670 318 615 q 399 796 399 725 q 374 878 399 847 q 301 910 349 910 m 314 988 q 442 936 393 988 q 490 804 490 885 q 418 615 490 693 q 244 538 346 538 q 114 589 163 538 q 65 722 65 640 q 138 909 65 831 q 314 988 210 988 z "},"±":{"ha":797,"x_min":110,"x_max":689,"o":"m 661 67 q 647 25 661 42 q 611 8 633 8 q 512 14 589 8 q 394 19 435 19 q 114 8 236 19 q 110 50 110 29 q 122 90 110 72 q 160 108 135 108 q 247 103 164 108 q 392 99 331 99 q 657 108 572 99 q 661 67 661 96 m 439 444 q 685 456 589 444 q 689 414 689 443 q 675 372 689 389 q 639 356 661 356 q 544 360 615 356 q 438 365 472 365 q 449 161 438 283 q 407 157 428 157 q 366 170 383 157 q 349 207 349 183 q 353 260 349 215 q 358 367 357 304 q 114 356 238 365 q 110 397 110 376 q 122 438 110 419 q 160 456 135 456 q 235 451 169 456 q 360 446 301 447 q 349 664 360 568 q 390 668 361 668 q 432 654 415 668 q 449 618 449 640 q 444 537 449 594 q 439 444 439 479 z "},"²":{"ha":554,"x_min":63,"x_max":506,"o":"m 176 763 q 138 796 138 767 q 205 888 138 840 q 347 935 272 935 q 463 895 421 935 q 506 792 506 856 q 410 587 506 700 q 149 382 314 474 q 263 381 186 381 q 481 414 406 381 q 492 369 492 394 q 456 322 492 335 q 276 306 411 306 q 110 308 175 306 q 63 353 63 308 q 67 388 63 378 q 319 585 225 479 q 414 774 414 690 q 389 839 414 814 q 321 864 364 864 q 247 835 288 864 q 176 763 206 807 z "},"³":{"ha":518,"x_min":63,"x_max":494,"o":"m 214 654 q 280 660 253 656 q 338 678 307 665 q 386 721 369 692 q 403 794 403 750 q 315 864 403 864 q 181 790 246 864 q 142 829 142 799 q 207 903 142 872 q 331 935 272 935 q 453 901 413 935 q 494 811 494 868 q 361 636 494 678 q 465 497 465 600 q 391 348 465 407 q 213 289 317 289 q 108 310 153 289 q 63 367 63 331 q 107 417 63 400 q 229 360 151 360 q 335 397 293 360 q 376 500 376 435 q 238 603 376 603 q 210 632 210 603 q 214 654 210 642 z "},"´":{"ha":279,"x_min":0,"x_max":279,"o":"m 239 839 q 124 783 208 822 q 18 729 39 744 q 0 769 0 747 q 29 811 0 797 q 238 956 175 894 q 279 893 279 925 q 239 839 279 863 z "},"µ":{"ha":657,"x_min":13,"x_max":601,"o":"m 433 122 q 342 28 401 71 q 228 -14 282 -14 q 139 36 172 -14 q 106 -167 106 -78 q 153 -289 106 -267 q 82 -353 133 -353 q 13 -226 13 -353 q 67 144 13 -162 q 121 514 121 451 q 93 589 121 582 q 118 634 96 608 q 167 660 140 660 q 226 575 226 660 q 199 377 226 553 q 171 163 171 201 q 190 85 171 114 q 242 57 208 57 q 361 120 296 57 q 454 265 426 183 q 501 644 496 542 q 547 651 526 651 q 601 607 601 651 q 599 581 601 599 q 589 526 596 563 q 578 460 582 490 q 532 129 532 176 q 560 57 532 64 q 535 12 557 38 q 486 -14 513 -14 q 429 72 429 -14 q 433 122 429 97 z "},"¶":{"ha":656,"x_min":83,"x_max":697,"o":"m 338 326 q 272 303 335 303 q 138 358 192 303 q 83 503 83 413 q 169 715 83 632 q 372 799 254 799 q 458 796 381 799 q 574 793 535 793 q 694 794 651 793 q 697 769 697 775 q 610 714 697 714 l 579 714 q 485 160 511 392 q 257 -165 447 -165 q 195 -149 219 -165 q 171 -104 171 -132 q 183 -58 171 -83 q 257 -75 222 -75 q 321 -57 294 -75 q 360 -12 347 -39 q 382 56 374 15 q 393 129 390 96 q 399 206 396 163 q 406 272 403 250 q 482 714 442 528 q 406 717 418 714 q 338 326 376 601 z "},"·":{"ha":243,"x_min":49,"x_max":208,"o":"m 118 274 q 69 294 89 274 q 49 347 49 314 q 76 419 49 388 q 140 450 104 450 q 189 428 169 450 q 208 375 208 407 q 182 303 208 333 q 118 274 156 274 z "},"¸":{"ha":486,"x_min":71,"x_max":296,"o":"m 197 44 l 249 38 q 236 13 247 33 q 219 -24 225 -8 q 213 -46 213 -39 q 243 -83 213 -61 q 296 -169 296 -115 q 242 -275 296 -228 q 114 -322 189 -322 q 71 -290 71 -322 q 97 -247 71 -271 q 135 -260 115 -260 q 195 -243 169 -260 q 221 -197 221 -226 q 181 -137 221 -169 q 142 -82 142 -106 q 197 44 142 -40 z "},"¹":{"ha":478,"x_min":69,"x_max":388,"o":"m 286 385 l 286 372 q 386 378 336 372 q 388 360 388 372 q 336 304 388 304 q 276 306 328 304 q 174 307 225 307 q 72 306 108 307 q 69 328 69 322 q 142 378 69 378 l 196 378 q 233 642 231 619 q 258 857 250 763 q 136 831 189 850 q 132 854 132 843 q 185 915 132 903 q 314 935 271 935 q 357 897 357 935 q 349 849 357 892 q 328 737 340 807 q 308 607 317 667 q 286 385 286 436 z "},"º":{"ha":476,"x_min":28,"x_max":399,"o":"m 206 418 q 347 428 301 418 q 349 413 349 422 q 333 372 349 389 q 294 356 318 356 q 242 361 283 356 q 181 367 201 367 q 29 356 96 367 q 28 371 28 361 q 82 428 28 428 q 128 423 85 428 q 206 418 172 418 m 204 522 q 99 563 138 522 q 60 672 60 603 q 112 828 60 763 q 253 893 164 893 q 360 852 321 893 q 399 740 399 811 q 345 587 399 651 q 204 522 292 522 m 210 571 q 301 615 267 571 q 336 726 336 658 q 313 812 336 779 q 247 844 290 844 q 157 800 190 844 q 124 688 124 756 q 146 603 124 635 q 210 571 168 571 z "},"»":{"ha":657,"x_min":21,"x_max":574,"o":"m 464 326 q 386 455 425 383 q 347 550 347 526 q 381 592 347 567 q 574 326 463 514 q 307 61 403 132 q 283 93 283 79 q 464 326 283 135 m 201 326 q 124 455 163 383 q 85 550 85 526 q 118 592 85 567 q 311 326 200 514 q 44 61 140 132 q 21 93 21 79 q 201 326 21 135 z "},"¼":{"ha":1164,"x_min":69,"x_max":1081,"o":"m 711 257 q 906 254 754 254 q 926 407 915 328 q 942 517 938 486 q 889 465 926 501 q 833 408 851 428 q 781 348 815 389 q 711 257 746 307 m 950 613 q 1013 628 967 628 q 1043 625 1021 628 q 1034 574 1043 622 q 1011 441 1025 526 q 985 261 997 356 q 1075 278 1047 265 q 1081 243 1081 258 q 1074 213 1081 225 q 1061 195 1068 201 q 1037 185 1054 189 q 1009 181 1019 182 q 974 181 999 181 q 965 69 965 111 q 971 -3 965 26 q 928 -14 949 -14 q 875 35 875 -14 q 883 108 875 60 q 894 179 892 156 l 843 179 q 651 189 726 179 q 632 222 632 190 q 639 271 632 246 q 790 456 694 351 q 950 613 886 560 m 286 385 l 286 372 q 386 378 336 372 q 388 360 388 372 q 336 304 388 304 q 276 306 328 304 q 174 307 225 307 q 72 306 108 307 q 69 328 69 322 q 142 378 69 378 l 196 378 q 233 642 231 619 q 258 857 250 763 q 136 831 189 850 q 132 854 132 843 q 185 915 132 903 q 314 935 271 935 q 357 897 357 935 q 349 849 357 892 q 328 737 340 807 q 308 607 317 667 q 286 385 286 436 m 219 -79 l 708 733 q 876 1028 819 918 q 919 1018 900 1028 q 939 990 939 1008 q 928 958 939 974 l 439 146 q 271 -149 321 -50 q 208 -108 208 -146 q 219 -79 208 -97 z "},"½":{"ha":1239,"x_min":69,"x_max":1121,"o":"m 792 456 q 753 489 753 460 q 820 581 753 533 q 963 628 888 628 q 1078 588 1036 628 q 1121 485 1121 549 q 1025 280 1121 393 q 764 75 929 167 q 878 74 801 74 q 1096 107 1021 74 q 1107 63 1107 88 q 1071 15 1107 28 q 892 -1 1026 -1 q 725 1 790 -1 q 678 46 678 1 q 682 81 678 71 q 935 278 840 172 q 1029 467 1029 383 q 1004 532 1029 507 q 936 557 979 557 q 862 528 903 557 q 792 456 821 500 m 286 385 l 286 372 q 386 378 336 372 q 388 360 388 372 q 336 304 388 304 q 276 306 328 304 q 174 307 225 307 q 72 306 108 307 q 69 328 69 322 q 142 378 69 378 l 196 378 q 233 642 231 619 q 258 857 250 763 q 136 831 189 850 q 132 854 132 843 q 185 915 132 903 q 314 935 271 935 q 357 897 357 935 q 349 849 357 892 q 328 737 340 807 q 308 607 317 667 q 286 385 286 436 m 219 -79 l 708 733 q 876 1028 819 918 q 919 1018 900 1028 q 939 990 939 1008 q 928 958 939 974 l 439 146 q 271 -149 321 -50 q 208 -108 208 -146 q 219 -79 208 -97 z "},"¾":{"ha":1183,"x_min":63,"x_max":1100,"o":"m 253 -79 l 742 733 q 910 1028 853 918 q 953 1018 933 1028 q 972 990 972 1008 q 961 958 972 974 l 472 146 q 304 -149 354 -50 q 242 -108 242 -146 q 253 -79 242 -97 m 210 601 l 210 654 l 217 654 q 404 790 404 654 q 315 864 404 864 q 181 790 249 864 q 142 829 142 799 q 207 903 142 872 q 335 935 272 935 q 497 813 497 935 q 363 636 497 679 q 465 503 465 601 q 399 353 465 418 q 215 289 332 289 q 108 310 153 289 q 63 367 63 331 q 107 417 63 403 q 229 360 149 360 q 335 399 294 360 q 375 503 375 438 q 246 603 375 603 q 210 601 222 603 m 731 257 q 925 254 774 254 q 946 407 935 328 q 961 517 957 486 q 908 465 946 501 q 853 408 871 428 q 800 348 835 389 q 731 257 765 307 m 969 613 q 1032 628 986 628 q 1063 625 1040 628 q 1053 574 1063 622 q 1031 441 1044 526 q 1004 261 1017 356 q 1094 278 1067 265 q 1100 243 1100 258 q 1094 213 1100 225 q 1081 195 1088 201 q 1056 185 1074 189 q 1028 181 1039 182 q 993 181 1018 181 q 985 69 985 111 q 990 -3 985 26 q 947 -14 968 -14 q 894 35 894 -14 q 903 108 894 60 q 914 179 911 156 l 863 179 q 671 189 746 179 q 651 222 651 190 q 658 271 651 246 q 810 456 714 351 q 969 613 906 560 z "},"¿":{"ha":503,"x_min":0,"x_max":419,"o":"m 307 483 q 258 503 278 483 q 238 557 238 524 q 265 628 238 597 q 329 660 293 660 q 378 638 358 660 q 397 585 397 617 q 371 513 397 543 q 307 483 344 483 m 256 369 q 311 383 288 383 q 363 315 363 383 q 340 223 363 268 q 291 148 318 178 q 222 76 264 118 q 160 6 181 33 q 101 -140 101 -71 q 128 -205 101 -183 q 197 -226 154 -226 q 299 -197 250 -226 q 364 -122 349 -168 q 419 -174 419 -132 q 355 -267 419 -231 q 207 -304 290 -304 q 60 -261 121 -304 q 0 -132 0 -218 q 82 56 0 -33 q 140 111 100 75 q 202 170 181 147 q 242 233 224 193 q 261 317 261 272 q 256 369 261 343 z "},"À":{"ha":733,"x_min":-14,"x_max":710,"o":"m 267 1125 q 232 1175 232 1147 q 281 1239 232 1213 q 326 1192 297 1218 q 381 1146 356 1165 q 435 1104 406 1126 q 469 1078 464 1082 q 496 1039 496 1058 q 474 994 496 1017 q 378 1056 456 1010 q 267 1125 300 1103 m 435 790 q 385 678 419 757 q 317 522 351 599 q 247 372 282 444 q 400 369 347 369 q 515 372 478 369 q 435 790 490 485 m 367 288 q 208 290 336 288 q 161 186 193 257 q 107 66 129 115 q 74 -18 85 17 q 15 -2 43 -17 q -14 39 -14 13 q 15 110 -14 51 q 100 281 43 168 q 193 467 157 393 q 386 915 354 801 q 449 921 436 921 q 497 906 482 921 q 521 847 513 890 q 542 729 525 829 q 576 547 560 629 q 611 389 593 464 q 710 14 672 121 q 642 -14 671 -14 q 590 24 599 -14 q 533 290 571 111 q 367 288 394 288 z "},"Á":{"ha":733,"x_min":-14,"x_max":710,"o":"m 561 1104 q 446 1049 531 1088 q 340 994 361 1010 q 322 1035 322 1013 q 351 1076 322 1063 q 560 1221 497 1160 q 601 1158 601 1190 q 561 1104 601 1128 m 435 790 q 385 678 419 757 q 317 522 351 599 q 247 372 282 444 q 400 369 347 369 q 515 372 478 369 q 435 790 490 485 m 367 288 q 208 290 336 288 q 161 186 193 257 q 107 66 129 115 q 74 -18 85 17 q 15 -2 43 -17 q -14 39 -14 13 q 15 110 -14 51 q 100 281 43 168 q 193 467 157 393 q 386 915 354 801 q 449 921 436 921 q 497 906 482 921 q 521 847 513 890 q 542 729 525 829 q 576 547 560 629 q 611 389 593 464 q 710 14 672 121 q 642 -14 671 -14 q 590 24 599 -14 q 533 290 571 111 q 367 288 394 288 z "},"Â":{"ha":733,"x_min":-14,"x_max":710,"o":"m 471 1208 q 618 1032 618 1097 q 581 986 618 1001 q 529 1050 561 1019 q 475 1094 497 1081 l 454 1110 q 290 997 311 997 q 260 1022 274 997 q 471 1208 354 1126 m 435 790 q 385 678 419 757 q 317 522 351 599 q 247 372 282 444 q 400 369 347 369 q 515 372 478 369 q 435 790 490 485 m 367 288 q 208 290 336 288 q 161 186 193 257 q 107 66 129 115 q 74 -18 85 17 q 15 -2 43 -17 q -14 39 -14 13 q 15 110 -14 51 q 100 281 43 168 q 193 467 157 393 q 386 915 354 801 q 449 921 436 921 q 497 906 482 921 q 521 847 513 890 q 542 729 525 829 q 576 547 560 629 q 611 389 593 464 q 710 14 672 121 q 642 -14 671 -14 q 590 24 599 -14 q 533 290 571 111 q 367 288 394 288 z "},"Ã":{"ha":733,"x_min":-14,"x_max":710,"o":"m 435 790 q 385 678 419 757 q 317 522 351 599 q 247 372 282 444 q 400 369 347 369 q 515 372 478 369 q 435 790 490 485 m 367 288 q 208 290 336 288 q 161 186 193 257 q 107 66 129 115 q 74 -18 85 17 q 15 -2 43 -17 q -14 39 -14 13 q 15 110 -14 51 q 100 281 43 168 q 193 467 157 393 q 386 915 354 801 q 449 921 436 921 q 497 906 482 921 q 521 847 513 890 q 542 729 525 829 q 576 547 560 629 q 611 389 593 464 q 710 14 672 121 q 642 -14 671 -14 q 590 24 599 -14 q 533 290 571 111 q 367 288 394 288 m 546 1083 q 588 1101 561 1083 q 636 1142 615 1119 q 654 1118 654 1135 q 604 1040 654 1079 q 504 1001 554 1001 q 428 1033 475 1001 q 356 1064 381 1064 q 265 1006 329 1064 q 247 1029 247 1014 q 297 1107 247 1068 q 399 1146 347 1146 q 473 1115 424 1146 q 546 1083 522 1083 z "},"Ä":{"ha":733,"x_min":-14,"x_max":710,"o":"m 435 790 q 385 678 419 757 q 317 522 351 599 q 247 372 282 444 q 400 369 347 369 q 515 372 478 369 q 435 790 490 485 m 367 288 q 208 290 336 288 q 161 186 193 257 q 107 66 129 115 q 74 -18 85 17 q 15 -2 43 -17 q -14 39 -14 13 q 15 110 -14 51 q 100 281 43 168 q 193 467 157 393 q 386 915 354 801 q 449 921 436 921 q 497 906 482 921 q 521 847 513 890 q 542 729 525 829 q 576 547 560 629 q 611 389 593 464 q 710 14 672 121 q 642 -14 671 -14 q 590 24 599 -14 q 533 290 571 111 q 367 288 394 288 m 326 989 q 283 1007 300 989 q 267 1054 267 1025 q 290 1113 267 1089 q 344 1138 314 1138 q 387 1118 369 1138 q 404 1069 404 1099 q 379 1013 404 1036 q 326 989 354 989 m 558 989 q 515 1007 532 989 q 499 1054 499 1025 q 522 1113 499 1089 q 576 1138 546 1138 q 619 1118 601 1138 q 636 1069 636 1099 q 611 1013 636 1036 q 558 989 586 989 z "},"Å":{"ha":733,"x_min":-14,"x_max":710,"o":"m 443 988 q 367 1015 394 988 q 339 1092 339 1043 q 378 1194 339 1153 q 475 1235 418 1235 q 550 1207 522 1235 q 578 1131 578 1179 q 539 1028 578 1069 q 443 988 500 988 m 469 1189 q 416 1163 435 1189 q 397 1097 397 1138 q 410 1051 397 1068 q 449 1033 424 1033 q 500 1059 482 1033 q 518 1124 518 1085 q 505 1171 518 1153 q 469 1189 492 1189 m 435 790 q 385 678 419 757 q 317 522 351 599 q 247 372 282 444 q 400 369 347 369 q 515 372 478 369 q 435 790 490 485 m 367 288 q 208 290 336 288 q 161 186 193 257 q 107 66 129 115 q 74 -18 85 17 q 15 -2 43 -17 q -14 39 -14 13 q 15 110 -14 51 q 100 281 43 168 q 193 467 157 393 q 386 915 354 801 q 449 921 436 921 q 497 906 482 921 q 521 847 513 890 q 542 729 525 829 q 576 547 560 629 q 611 389 593 464 q 710 14 672 121 q 642 -14 671 -14 q 590 24 599 -14 q 533 290 571 111 q 367 288 394 288 z "},"Æ":{"ha":994,"x_min":-56,"x_max":1015,"o":"m 415 369 l 481 369 q 531 785 519 653 q 420 610 511 754 q 267 372 329 465 q 415 369 361 369 m 996 806 q 768 835 929 835 q 643 831 714 835 q 610 536 640 765 q 846 542 800 536 q 849 511 849 519 q 786 450 849 454 q 597 449 753 449 q 560 85 560 156 q 629 82 599 82 q 781 92 704 82 q 883 114 858 101 q 894 56 894 76 q 851 6 894 15 q 683 -4 807 -4 q 492 -1 528 -4 q 453 11 464 0 q 442 47 442 22 q 468 289 442 94 q 367 288 431 288 q 211 290 339 288 q 19 -14 53 53 q -56 36 -56 -1 q 3 138 -56 51 q 93 267 28 174 q 194 414 158 360 q 503 908 393 706 q 808 924 649 924 q 1008 903 988 924 q 1015 876 1015 894 q 996 806 1015 840 z "},"Ç":{"ha":718,"x_min":67,"x_max":739,"o":"m 593 186 q 653 121 653 161 q 578 28 653 69 q 400 -14 503 -12 q 390 -46 390 -36 q 421 -83 390 -61 q 474 -169 474 -115 q 420 -275 474 -228 q 292 -322 367 -322 q 249 -290 249 -322 q 275 -247 249 -271 q 313 -260 293 -260 q 373 -243 347 -260 q 399 -197 399 -226 q 359 -137 399 -169 q 319 -82 319 -106 q 342 -10 319 -58 q 140 108 213 7 q 67 367 67 208 q 194 776 67 618 q 525 935 322 935 q 678 895 617 935 q 739 797 739 856 q 716 741 739 763 q 657 714 693 719 q 596 816 642 782 q 493 850 550 850 q 269 714 357 850 q 182 399 182 578 q 240 163 182 254 q 408 71 297 71 q 593 186 522 71 z "},"È":{"ha":636,"x_min":83,"x_max":657,"o":"m 638 806 q 410 835 571 835 q 285 831 356 835 q 251 536 282 765 q 488 542 442 536 q 490 511 490 519 q 428 450 490 454 q 239 449 394 449 q 201 85 201 156 q 271 82 240 82 q 423 92 346 82 q 525 114 500 101 q 536 56 536 76 q 492 6 536 15 q 325 -4 449 -4 q 133 -1 169 -4 q 94 11 106 0 q 83 47 83 22 q 130 425 83 86 q 176 876 176 764 q 175 911 176 901 q 450 924 311 924 q 650 903 629 924 q 657 876 657 894 q 638 806 657 840 m 261 1125 q 226 1175 226 1147 q 275 1239 226 1213 q 321 1192 292 1218 q 375 1146 350 1165 q 429 1104 400 1126 q 464 1078 458 1082 q 490 1039 490 1058 q 468 994 490 1017 q 372 1056 450 1010 q 261 1125 294 1103 z "},"É":{"ha":636,"x_min":83,"x_max":657,"o":"m 638 806 q 410 835 571 835 q 285 831 356 835 q 251 536 282 765 q 488 542 442 536 q 490 511 490 519 q 428 450 490 454 q 239 449 394 449 q 201 85 201 156 q 271 82 240 82 q 423 92 346 82 q 525 114 500 101 q 536 56 536 76 q 492 6 536 15 q 325 -4 449 -4 q 133 -1 169 -4 q 94 11 106 0 q 83 47 83 22 q 130 425 83 86 q 176 876 176 764 q 175 911 176 901 q 450 924 311 924 q 650 903 629 924 q 657 876 657 894 q 638 806 657 840 m 583 1103 q 468 1047 553 1086 q 363 993 383 1008 q 344 1033 344 1011 q 374 1075 344 1061 q 582 1219 519 1158 q 624 1157 624 1189 q 583 1103 624 1126 z "},"Ê":{"ha":636,"x_min":83,"x_max":657,"o":"m 457 1208 q 604 1032 604 1097 q 567 986 604 1001 q 515 1050 547 1019 q 461 1094 483 1081 l 440 1110 q 413 1088 432 1103 q 384 1065 394 1074 q 358 1044 374 1057 q 331 1025 342 1032 q 309 1011 321 1018 q 290 1001 297 1004 q 276 997 282 997 q 246 1022 260 997 q 457 1208 340 1126 m 638 806 q 410 835 571 835 q 285 831 356 835 q 251 536 282 765 q 488 542 442 536 q 490 511 490 519 q 428 450 490 454 q 239 449 394 449 q 201 85 201 156 q 271 82 240 82 q 423 92 346 82 q 525 114 500 101 q 536 56 536 76 q 492 6 536 15 q 325 -4 449 -4 q 133 -1 169 -4 q 94 11 106 0 q 83 47 83 22 q 130 425 83 86 q 176 876 176 764 q 175 911 176 901 q 450 924 311 924 q 650 903 629 924 q 657 876 657 894 q 638 806 657 840 z "},"Ë":{"ha":629,"x_min":83,"x_max":650,"o":"m 631 806 q 403 835 564 835 q 285 831 356 835 q 251 536 282 765 q 488 542 442 536 q 490 511 490 519 q 428 450 490 454 q 239 449 394 449 q 201 85 201 156 q 290 82 240 82 q 442 92 365 82 q 544 114 519 101 q 556 56 556 76 q 512 6 556 15 q 344 -4 468 -4 q 133 -1 169 -4 q 94 11 106 0 q 83 47 83 22 q 130 425 83 86 q 176 876 176 764 q 175 911 176 901 q 443 924 311 924 q 643 903 622 924 q 650 876 650 894 q 631 806 650 840 m 303 989 q 260 1007 276 989 q 243 1054 243 1025 q 267 1113 243 1089 q 321 1138 290 1138 q 363 1118 346 1138 q 381 1069 381 1099 q 356 1013 381 1036 q 303 989 331 989 m 535 989 q 492 1007 508 989 q 475 1054 475 1025 q 499 1113 475 1089 q 553 1138 522 1138 q 595 1118 578 1138 q 613 1069 613 1099 q 588 1013 613 1036 q 535 989 563 989 z "},"Ì":{"ha":328,"x_min":64,"x_max":328,"o":"m 243 925 q 304 879 304 925 q 297 834 304 872 q 278 719 290 796 q 256 561 265 642 l 219 282 q 203 92 203 160 q 208 7 203 44 q 142 -4 183 -4 q 83 54 83 -4 q 90 115 83 64 q 116 303 97 165 q 154 599 135 442 q 186 921 181 807 q 243 925 208 925 m 99 1125 q 64 1175 64 1147 q 113 1239 64 1213 q 158 1192 129 1218 q 213 1146 188 1165 q 267 1104 238 1126 q 301 1078 296 1082 q 328 1039 328 1058 q 306 994 328 1017 q 210 1056 288 1010 q 99 1125 132 1103 z "},"Í":{"ha":328,"x_min":83,"x_max":433,"o":"m 243 925 q 304 879 304 925 q 297 834 304 872 q 278 719 290 796 q 256 561 265 642 l 219 282 q 203 92 203 160 q 208 7 203 44 q 142 -4 183 -4 q 83 54 83 -4 q 90 115 83 64 q 116 303 97 165 q 154 599 135 442 q 186 921 181 807 q 243 925 208 925 m 393 1104 q 278 1049 363 1088 q 172 994 193 1010 q 154 1035 154 1013 q 183 1076 154 1063 q 392 1221 329 1160 q 433 1158 433 1190 q 393 1104 433 1128 z "},"Î":{"ha":328,"x_min":69,"x_max":428,"o":"m 281 1208 q 428 1032 428 1097 q 390 986 428 1001 q 339 1050 371 1019 q 286 1094 307 1081 l 264 1110 q 237 1088 256 1103 q 208 1065 218 1074 q 181 1044 197 1057 q 155 1025 165 1032 q 133 1011 144 1018 q 113 1001 121 1004 q 100 997 106 997 q 69 1022 83 997 q 281 1208 164 1126 m 243 925 q 304 879 304 925 q 297 834 304 872 q 278 719 290 796 q 256 561 265 642 l 219 282 q 203 92 203 160 q 208 7 203 44 q 142 -4 183 -4 q 83 54 83 -4 q 90 115 83 64 q 116 303 97 165 q 154 599 135 442 q 186 921 181 807 q 243 925 208 925 z "},"Ï":{"ha":328,"x_min":75,"x_max":444,"o":"m 243 925 q 304 879 304 925 q 297 834 304 872 q 278 719 290 796 q 256 561 265 642 l 219 282 q 203 92 203 160 q 208 7 203 44 q 142 -4 183 -4 q 83 54 83 -4 q 90 115 83 64 q 116 303 97 165 q 154 599 135 442 q 186 921 181 807 q 243 925 208 925 m 135 989 q 92 1007 108 989 q 75 1054 75 1025 q 99 1113 75 1089 q 153 1138 122 1138 q 195 1118 178 1138 q 213 1069 213 1099 q 188 1013 213 1036 q 135 989 163 989 m 367 989 q 324 1007 340 989 q 307 1054 307 1025 q 331 1113 307 1089 q 385 1138 354 1138 q 427 1118 410 1138 q 444 1069 444 1099 q 419 1013 444 1036 q 367 989 394 989 z "},"Ð":{"ha":840,"x_min":56,"x_max":814,"o":"m 321 844 q 288 536 308 690 q 524 542 479 536 q 526 511 526 519 q 464 450 526 454 q 275 449 435 449 q 218 121 249 272 q 374 71 279 71 q 528 116 461 71 q 629 233 594 161 q 681 380 664 304 q 697 531 697 456 q 620 770 697 690 q 399 850 543 850 q 321 844 374 850 m 103 74 q 169 449 143 260 q 58 443 96 449 q 56 474 56 465 q 119 536 56 536 l 182 536 q 214 918 210 764 q 411 935 289 935 q 814 561 814 935 q 763 283 814 411 q 605 70 711 154 q 358 -14 499 -14 q 103 74 186 -14 z "},"Ñ":{"ha":806,"x_min":83,"x_max":782,"o":"m 671 1 q 625 -4 650 -4 q 564 33 581 -4 q 432 352 528 115 q 267 742 336 589 q 240 544 257 669 q 214 348 224 419 q 197 199 204 276 q 189 82 189 121 q 194 7 189 54 q 142 -4 169 -4 q 96 8 108 -4 q 83 49 83 21 q 90 106 83 61 q 105 215 96 150 q 119 321 114 281 q 142 493 129 397 q 160 638 154 589 q 172 741 167 686 q 176 839 176 796 q 171 915 176 883 q 236 926 197 926 q 303 886 275 926 q 600 218 408 726 l 647 599 q 679 921 671 781 q 724 925 700 925 q 782 878 782 925 q 774 823 782 868 q 753 702 765 778 q 733 561 742 626 q 708 365 725 493 q 683 155 692 236 q 671 1 675 74 m 597 1083 q 640 1101 613 1083 q 688 1142 667 1119 q 706 1118 706 1135 q 656 1040 706 1079 q 556 1001 606 1001 q 479 1033 526 1001 q 407 1064 432 1064 q 317 1006 381 1064 q 299 1029 299 1014 q 349 1107 299 1068 q 450 1146 399 1146 q 524 1115 475 1146 q 597 1083 574 1083 z "},"Ò":{"ha":872,"x_min":67,"x_max":846,"o":"m 394 -14 q 153 88 240 -14 q 67 365 67 190 q 191 772 67 608 q 514 936 315 936 q 758 835 669 936 q 846 558 846 735 q 721 153 846 319 q 394 -14 596 -14 m 503 850 q 269 719 356 850 q 182 400 182 589 q 237 163 182 257 q 407 69 292 69 q 585 137 510 69 q 694 306 660 204 q 729 529 729 408 q 674 758 729 667 q 503 850 619 850 m 347 1125 q 313 1175 313 1147 q 361 1239 313 1213 q 407 1192 378 1218 q 461 1146 436 1165 q 515 1104 486 1126 q 550 1078 544 1082 q 576 1039 576 1058 q 554 994 576 1017 q 458 1056 536 1010 q 347 1125 381 1103 z "},"Ó":{"ha":872,"x_min":67,"x_max":846,"o":"m 394 -14 q 153 88 240 -14 q 67 365 67 190 q 191 772 67 608 q 514 936 315 936 q 758 835 669 936 q 846 558 846 735 q 721 153 846 319 q 394 -14 596 -14 m 503 850 q 269 719 356 850 q 182 400 182 589 q 237 163 182 257 q 407 69 292 69 q 585 137 510 69 q 694 306 660 204 q 729 529 729 408 q 674 758 729 667 q 503 850 619 850 m 669 1104 q 554 1049 639 1088 q 449 994 469 1010 q 431 1035 431 1013 q 460 1076 431 1063 q 668 1221 606 1160 q 710 1158 710 1190 q 669 1104 710 1128 z "},"Ô":{"ha":872,"x_min":67,"x_max":846,"o":"m 543 1208 q 690 1032 690 1097 q 653 986 690 1001 q 601 1050 633 1019 q 547 1094 569 1081 l 526 1110 q 363 997 383 997 q 332 1022 346 997 q 543 1208 426 1126 m 394 -14 q 153 88 240 -14 q 67 365 67 190 q 191 772 67 608 q 514 936 315 936 q 758 835 669 936 q 846 558 846 735 q 721 153 846 319 q 394 -14 596 -14 m 503 850 q 269 719 356 850 q 182 400 182 589 q 237 163 182 257 q 407 69 292 69 q 585 137 510 69 q 694 306 660 204 q 729 529 729 408 q 674 758 729 667 q 503 850 619 850 z "},"Õ":{"ha":872,"x_min":67,"x_max":846,"o":"m 394 -14 q 153 88 240 -14 q 67 365 67 190 q 191 772 67 608 q 514 936 315 936 q 758 835 669 936 q 846 558 846 735 q 721 153 846 319 q 394 -14 596 -14 m 503 850 q 269 719 356 850 q 182 400 182 589 q 237 163 182 257 q 407 69 292 69 q 585 137 510 69 q 694 306 660 204 q 729 529 729 408 q 674 758 729 667 q 503 850 619 850 m 632 1083 q 674 1101 647 1083 q 722 1142 701 1119 q 740 1118 740 1135 q 690 1040 740 1079 q 590 1001 640 1001 q 514 1033 561 1001 q 442 1064 467 1064 q 351 1006 415 1064 q 333 1029 333 1014 q 383 1107 333 1068 q 485 1146 433 1146 q 559 1115 510 1146 q 632 1083 608 1083 z "},"Ö":{"ha":872,"x_min":67,"x_max":846,"o":"m 394 -14 q 153 88 240 -14 q 67 365 67 190 q 191 772 67 608 q 514 936 315 936 q 758 835 669 936 q 846 558 846 735 q 721 153 846 319 q 394 -14 596 -14 m 503 850 q 269 719 356 850 q 182 400 182 589 q 237 163 182 257 q 407 69 292 69 q 585 137 510 69 q 694 306 660 204 q 729 529 729 408 q 674 758 729 667 q 503 850 619 850 m 400 989 q 357 1007 374 989 q 340 1054 340 1025 q 364 1113 340 1089 q 418 1138 388 1138 q 460 1118 443 1138 q 478 1069 478 1099 q 453 1013 478 1036 q 400 989 428 989 m 632 989 q 589 1007 606 989 q 572 1054 572 1025 q 596 1113 572 1089 q 650 1138 619 1138 q 692 1118 675 1138 q 710 1069 710 1099 q 685 1013 710 1036 q 632 989 660 989 z "},"×":{"ha":797,"x_min":113,"x_max":685,"o":"m 454 350 q 685 135 607 197 q 614 83 654 83 q 582 97 596 83 q 492 194 564 115 q 397 294 419 272 q 182 64 260 160 q 129 135 129 100 q 143 167 129 153 q 342 351 144 167 q 113 567 168 518 q 182 619 146 619 q 215 604 200 619 q 253 563 224 596 q 326 485 283 531 q 399 407 369 439 q 614 638 551 560 q 649 607 633 626 q 665 567 665 588 q 651 535 665 549 q 555 444 633 517 q 454 350 476 372 z "},"Ø":{"ha":878,"x_min":67,"x_max":851,"o":"m 407 69 q 585 137 510 69 q 694 306 660 204 q 729 529 729 408 q 689 731 729 649 l 285 108 q 407 69 335 69 m 503 850 q 269 719 356 850 q 182 400 182 589 q 238 161 182 249 l 649 792 q 503 850 593 850 m 394 -14 q 231 25 301 -14 q 146 -117 204 -17 q 107 -104 122 -115 q 92 -76 92 -93 q 103 -46 92 -64 l 175 65 q 67 365 67 165 q 191 772 67 608 q 514 936 315 936 q 706 881 626 936 q 797 1033 753 956 q 851 993 851 1031 q 840 963 851 978 l 757 836 q 846 558 846 736 q 721 153 846 319 q 394 -14 596 -14 z "},"Ù":{"ha":828,"x_min":110,"x_max":804,"o":"m 625 381 q 686 921 681 804 q 743 925 708 925 q 804 879 804 925 q 797 834 804 872 q 778 719 790 796 q 756 561 765 642 l 719 282 q 703 92 703 160 q 708 7 703 44 q 642 -4 683 -4 q 583 54 583 -4 q 600 183 583 67 q 460 38 540 89 q 304 -14 381 -14 q 160 53 211 -14 q 110 218 110 119 q 144 516 110 253 q 186 921 179 779 q 243 925 208 925 q 304 879 304 925 q 298 838 304 875 q 280 727 292 800 q 258 585 268 654 q 217 228 217 278 q 242 128 217 169 q 322 86 268 86 q 489 170 399 86 q 625 381 579 254 m 349 1125 q 314 1175 314 1147 q 363 1239 314 1213 q 408 1192 379 1218 q 463 1146 438 1165 q 517 1104 488 1126 q 551 1078 546 1082 q 578 1039 578 1058 q 556 994 578 1017 q 460 1056 538 1010 q 349 1125 382 1103 z "},"Ú":{"ha":828,"x_min":110,"x_max":804,"o":"m 625 381 q 686 921 681 804 q 743 925 708 925 q 804 879 804 925 q 797 834 804 872 q 778 719 790 796 q 756 561 765 642 l 719 282 q 703 92 703 160 q 708 7 703 44 q 642 -4 683 -4 q 583 54 583 -4 q 600 183 583 67 q 460 38 540 89 q 304 -14 381 -14 q 160 53 211 -14 q 110 218 110 119 q 144 516 110 253 q 186 921 179 779 q 243 925 208 925 q 304 879 304 925 q 298 838 304 875 q 280 727 292 800 q 258 585 268 654 q 217 228 217 278 q 242 128 217 169 q 322 86 268 86 q 489 170 399 86 q 625 381 579 254 m 671 1104 q 556 1049 640 1088 q 450 994 471 1010 q 432 1035 432 1013 q 461 1076 432 1063 q 669 1221 607 1160 q 711 1158 711 1190 q 671 1104 711 1128 z "},"Û":{"ha":828,"x_min":110,"x_max":804,"o":"m 539 1208 q 686 1032 686 1097 q 649 986 686 1001 q 597 1050 629 1019 q 544 1094 565 1081 l 522 1110 q 495 1088 514 1103 q 466 1065 476 1074 q 440 1044 456 1057 q 413 1025 424 1032 q 391 1011 403 1018 q 372 1001 379 1004 q 358 997 364 997 q 328 1022 342 997 q 539 1208 422 1126 m 625 381 q 686 921 681 804 q 743 925 708 925 q 804 879 804 925 q 797 834 804 872 q 778 719 790 796 q 756 561 765 642 l 719 282 q 703 92 703 160 q 708 7 703 44 q 642 -4 683 -4 q 583 54 583 -4 q 600 183 583 67 q 460 38 540 89 q 304 -14 381 -14 q 160 53 211 -14 q 110 218 110 119 q 144 516 110 253 q 186 921 179 779 q 243 925 208 925 q 304 879 304 925 q 298 838 304 875 q 280 727 292 800 q 258 585 268 654 q 217 228 217 278 q 242 128 217 169 q 322 86 268 86 q 489 170 399 86 q 625 381 579 254 z "},"Ü":{"ha":828,"x_min":110,"x_max":804,"o":"m 625 381 q 686 921 681 804 q 743 925 708 925 q 804 879 804 925 q 797 834 804 872 q 778 719 790 796 q 756 561 765 642 l 719 282 q 703 92 703 160 q 708 7 703 44 q 642 -4 683 -4 q 583 54 583 -4 q 600 183 583 67 q 460 38 540 89 q 304 -14 381 -14 q 160 53 211 -14 q 110 218 110 119 q 144 516 110 253 q 186 921 179 779 q 243 925 208 925 q 304 879 304 925 q 298 838 304 875 q 280 727 292 800 q 258 585 268 654 q 217 228 217 278 q 242 128 217 169 q 322 86 268 86 q 489 170 399 86 q 625 381 579 254 m 401 989 q 358 1007 375 989 q 342 1054 342 1025 q 365 1113 342 1089 q 419 1138 389 1138 q 462 1118 444 1138 q 479 1069 479 1099 q 454 1013 479 1036 q 401 989 429 989 m 633 989 q 590 1007 607 989 q 574 1054 574 1025 q 597 1113 574 1089 q 651 1138 621 1138 q 694 1118 676 1138 q 711 1069 711 1099 q 686 1013 711 1036 q 633 989 661 989 z "},"Ý":{"ha":640,"x_min":69,"x_max":710,"o":"m 69 860 q 88 881 75 865 q 106 900 101 896 q 121 913 111 904 q 139 924 131 921 q 157 926 147 926 q 214 879 194 926 q 363 513 272 765 q 515 742 433 601 q 607 933 597 882 q 710 876 710 933 q 597 685 710 842 q 392 419 485 529 l 374 282 q 357 92 357 160 q 363 7 357 44 q 296 -4 338 -4 q 238 54 238 -4 q 242 97 238 63 q 260 226 247 132 q 286 419 274 321 q 69 860 156 788 m 561 1104 q 446 1049 531 1088 q 340 994 361 1010 q 322 1035 322 1013 q 351 1076 322 1063 q 560 1221 497 1160 q 601 1158 601 1190 q 561 1104 601 1128 z "},"Þ":{"ha":657,"x_min":71,"x_max":643,"o":"m 321 261 q 476 335 422 261 q 529 525 529 410 q 481 653 529 618 q 342 689 432 689 q 260 685 301 689 q 208 296 251 629 q 321 261 258 261 m 231 925 q 292 879 292 925 q 274 771 292 861 q 339 774 324 774 q 643 528 643 774 q 550 271 643 365 q 338 176 457 176 q 199 221 254 176 q 190 92 190 156 q 196 7 190 44 q 129 -4 171 -4 q 71 54 71 -4 q 86 180 71 65 q 119 430 101 294 q 142 599 138 565 q 174 921 168 807 q 231 925 196 925 z "},"ß":{"ha":676,"x_min":-37,"x_max":621,"o":"m 325 156 q 356 88 326 111 q 422 64 385 64 q 492 95 464 64 q 521 172 521 126 q 498 244 521 211 q 443 302 475 278 q 378 351 411 326 q 323 410 346 376 q 300 485 300 444 q 331 565 300 528 q 400 624 363 601 q 469 687 438 647 q 500 774 500 726 q 476 835 500 814 q 411 857 451 857 q 292 815 349 857 q 226 685 236 772 q 128 -47 157 54 q 26 -178 92 -178 q -37 -110 -19 -178 q 50 67 13 -97 q 131 646 88 231 q 236 861 146 788 q 429 935 326 935 q 552 900 503 935 q 601 803 601 865 q 579 705 601 747 q 526 638 557 663 q 463 594 494 614 q 408 551 431 574 q 386 503 386 529 q 410 452 386 478 q 469 401 435 426 q 538 349 503 376 q 597 281 572 321 q 621 196 621 242 q 554 49 621 113 q 400 -14 488 -14 q 297 15 342 -14 q 253 86 253 43 q 325 156 253 138 z "},"à":{"ha":676,"x_min":54,"x_max":613,"o":"m 458 144 q 360 27 418 68 q 239 -14 301 -14 q 106 49 157 -14 q 54 231 54 113 q 144 532 54 406 q 364 658 233 658 q 613 579 506 658 q 549 138 549 268 q 593 50 549 81 q 522 -14 574 -14 q 457 99 457 -14 q 458 144 457 129 m 468 263 q 508 526 486 388 q 365 589 438 589 q 220 496 278 589 q 163 254 163 403 q 190 113 163 171 q 267 56 217 56 q 371 113 313 56 q 468 263 429 171 m 225 860 q 190 910 190 882 q 239 974 190 947 q 285 926 256 953 q 339 881 314 900 q 393 839 364 861 q 428 813 422 817 q 454 774 454 793 q 432 729 454 751 q 336 791 414 744 q 225 860 258 838 z "},"á":{"ha":676,"x_min":54,"x_max":613,"o":"m 458 144 q 360 27 418 68 q 239 -14 301 -14 q 106 49 157 -14 q 54 231 54 113 q 144 532 54 406 q 364 658 233 658 q 613 579 506 658 q 549 138 549 268 q 593 50 549 81 q 522 -14 574 -14 q 457 99 457 -14 q 458 144 457 129 m 468 263 q 508 526 486 388 q 365 589 438 589 q 220 496 278 589 q 163 254 163 403 q 190 113 163 171 q 267 56 217 56 q 371 113 313 56 q 468 263 429 171 m 547 839 q 432 783 517 822 q 326 729 347 744 q 308 769 308 747 q 338 811 308 797 q 546 956 483 894 q 588 893 588 925 q 547 839 588 863 z "},"â":{"ha":676,"x_min":54,"x_max":613,"o":"m 421 943 q 568 767 568 832 q 531 721 568 736 q 479 785 511 754 q 425 831 447 815 l 404 844 q 240 732 261 732 q 210 757 224 732 q 421 943 304 861 m 458 144 q 360 27 418 68 q 239 -14 301 -14 q 106 49 157 -14 q 54 231 54 113 q 144 532 54 406 q 364 658 233 658 q 613 579 506 658 q 549 138 549 268 q 593 50 549 81 q 522 -14 574 -14 q 457 99 457 -14 q 458 144 457 129 m 468 263 q 508 526 486 388 q 365 589 438 589 q 220 496 278 589 q 163 254 163 403 q 190 113 163 171 q 267 56 217 56 q 371 113 313 56 q 468 263 429 171 z "},"ã":{"ha":676,"x_min":54,"x_max":613,"o":"m 458 144 q 360 27 418 68 q 239 -14 301 -14 q 106 49 157 -14 q 54 231 54 113 q 144 532 54 406 q 364 658 233 658 q 613 579 506 658 q 549 138 549 268 q 593 50 549 81 q 522 -14 574 -14 q 457 99 457 -14 q 458 144 457 129 m 468 263 q 508 526 486 388 q 365 589 438 589 q 220 496 278 589 q 163 254 163 403 q 190 113 163 171 q 267 56 217 56 q 371 113 313 56 q 468 263 429 171 m 499 818 q 541 836 514 818 q 589 876 568 854 q 607 853 607 869 q 557 775 607 814 q 457 736 507 736 q 381 767 428 736 q 308 799 333 799 q 218 740 282 799 q 200 764 200 750 q 250 842 200 803 q 351 881 300 881 q 426 849 376 881 q 499 818 475 818 z "},"ä":{"ha":676,"x_min":54,"x_max":613,"o":"m 458 144 q 360 27 418 68 q 239 -14 301 -14 q 106 49 157 -14 q 54 231 54 113 q 144 532 54 406 q 364 658 233 658 q 613 579 506 658 q 549 138 549 268 q 593 50 549 81 q 522 -14 574 -14 q 457 99 457 -14 q 458 144 457 129 m 468 263 q 508 526 486 388 q 365 589 438 589 q 220 496 278 589 q 163 254 163 403 q 190 113 163 171 q 267 56 217 56 q 371 113 313 56 q 468 263 429 171 m 283 724 q 240 742 257 724 q 224 789 224 760 q 247 848 224 824 q 301 872 271 872 q 344 853 326 872 q 361 804 361 833 q 336 747 361 771 q 283 724 311 724 m 515 724 q 472 742 489 724 q 456 789 456 760 q 479 848 456 824 q 533 872 503 872 q 576 853 558 872 q 593 804 593 833 q 568 747 593 771 q 515 724 543 724 z "},"å":{"ha":676,"x_min":54,"x_max":613,"o":"m 415 722 q 339 750 367 722 q 311 826 311 778 q 351 928 311 888 q 447 969 390 969 q 522 942 494 969 q 550 865 550 914 q 511 763 550 804 q 415 722 472 722 m 442 924 q 388 898 407 924 q 369 832 369 872 q 383 785 369 803 q 421 768 396 768 q 472 794 454 768 q 490 858 490 819 q 477 906 490 888 q 442 924 464 924 m 458 144 q 360 27 418 68 q 239 -14 301 -14 q 106 49 157 -14 q 54 231 54 113 q 144 532 54 406 q 364 658 233 658 q 613 579 506 658 q 549 138 549 268 q 593 50 549 81 q 522 -14 574 -14 q 457 99 457 -14 q 458 144 457 129 m 468 263 q 508 526 486 388 q 365 589 438 589 q 220 496 278 589 q 163 254 163 403 q 190 113 163 171 q 267 56 217 56 q 371 113 313 56 q 468 263 429 171 z "},"æ":{"ha":983,"x_min":54,"x_max":942,"o":"m 833 499 q 810 564 833 538 q 746 590 788 590 q 616 513 672 590 q 550 317 560 436 q 616 319 589 317 q 688 331 643 321 q 761 359 733 342 q 811 413 789 376 q 833 499 833 449 m 267 56 q 353 97 304 56 q 440 207 401 138 q 439 250 439 221 q 522 526 439 415 q 365 589 439 589 q 220 496 278 589 q 163 254 163 403 q 190 113 163 171 q 267 56 217 56 m 843 142 q 886 83 886 115 q 828 14 886 42 q 693 -14 769 -14 q 456 144 508 -14 q 239 -14 371 -14 q 106 49 157 -14 q 54 231 54 113 q 144 532 54 406 q 364 658 233 658 q 583 589 486 658 q 769 658 665 658 q 897 617 853 658 q 942 514 942 576 q 914 396 942 446 q 848 320 886 346 q 757 279 810 294 q 668 260 704 264 q 594 257 632 257 q 549 260 576 257 q 594 106 554 156 q 697 56 635 56 q 843 142 788 56 z "},"ç":{"ha":574,"x_min":54,"x_max":560,"o":"m 493 492 q 442 560 481 538 q 365 582 403 582 q 219 490 274 582 q 164 271 164 399 q 206 109 164 163 q 313 56 249 56 q 458 142 403 56 q 501 83 501 115 q 442 14 501 42 q 304 -14 383 -14 q 294 -46 294 -40 q 325 -83 294 -61 q 378 -169 378 -115 q 324 -275 378 -228 q 196 -322 269 -322 q 153 -290 153 -322 q 179 -247 153 -271 q 217 -260 197 -260 q 277 -243 251 -260 q 303 -197 303 -226 q 263 -137 303 -169 q 224 -82 224 -106 q 247 -8 224 -56 q 103 73 153 7 q 54 250 54 139 q 157 551 54 443 q 389 658 260 658 q 505 633 450 658 q 560 560 560 608 q 493 492 560 503 z "},"è":{"ha":585,"x_min":40,"x_max":543,"o":"m 444 142 q 488 83 488 115 q 429 14 488 42 q 294 -14 371 -14 q 106 54 172 -14 q 40 250 40 122 q 144 550 40 442 q 371 658 247 658 q 499 617 454 658 q 543 514 543 576 q 515 396 543 446 q 449 320 488 346 q 358 279 411 294 q 269 260 306 264 q 196 257 233 257 q 150 260 178 257 q 196 106 156 156 q 299 56 236 56 q 444 142 389 56 m 435 499 q 412 564 435 538 q 347 590 389 590 q 217 513 274 590 q 151 317 161 436 q 217 319 190 317 q 290 331 244 321 q 363 359 335 342 q 413 413 390 376 q 435 499 435 449 m 183 860 q 149 910 149 882 q 197 974 149 947 q 243 926 214 953 q 297 881 272 900 q 351 839 322 861 q 386 813 381 817 q 413 774 413 793 q 390 729 413 751 q 294 791 372 744 q 183 860 217 838 z "},"é":{"ha":589,"x_min":40,"x_max":546,"o":"m 444 142 q 488 83 488 115 q 429 14 488 42 q 294 -14 371 -14 q 106 54 172 -14 q 40 250 40 122 q 144 550 40 442 q 371 658 247 658 q 499 617 454 658 q 543 514 543 576 q 515 396 543 446 q 449 320 488 346 q 358 279 411 294 q 269 260 306 264 q 196 257 233 257 q 150 260 178 257 q 196 106 156 156 q 299 56 236 56 q 444 142 389 56 m 435 499 q 412 564 435 538 q 347 590 389 590 q 217 513 274 590 q 151 317 161 436 q 217 319 190 317 q 290 331 244 321 q 363 359 335 342 q 413 413 390 376 q 435 499 435 449 m 506 839 q 390 783 475 822 q 285 729 306 744 q 267 769 267 747 q 296 811 267 797 q 504 956 442 894 q 546 893 546 925 q 506 839 546 863 z "},"ê":{"ha":585,"x_min":40,"x_max":543,"o":"m 379 943 q 526 767 526 832 q 489 721 526 736 q 438 785 469 754 q 383 831 406 815 l 363 844 q 335 823 354 838 q 306 800 317 808 q 280 779 296 792 q 253 760 264 767 q 231 746 243 753 q 212 735 219 739 q 199 732 204 732 q 168 757 182 732 q 379 943 263 861 m 444 142 q 488 83 488 115 q 429 14 488 42 q 294 -14 371 -14 q 106 54 172 -14 q 40 250 40 122 q 144 550 40 442 q 371 658 247 658 q 499 617 454 658 q 543 514 543 576 q 515 396 543 446 q 449 320 488 346 q 358 279 411 294 q 269 260 306 264 q 196 257 233 257 q 150 260 178 257 q 196 106 156 156 q 299 56 236 56 q 444 142 389 56 m 435 499 q 412 564 435 538 q 347 590 389 590 q 217 513 274 590 q 151 317 161 436 q 217 319 190 317 q 290 331 244 321 q 363 359 335 342 q 413 413 390 376 q 435 499 435 449 z "},"ë":{"ha":585,"x_min":40,"x_max":543,"o":"m 444 142 q 488 83 488 115 q 429 14 488 42 q 294 -14 371 -14 q 106 54 172 -14 q 40 250 40 122 q 144 550 40 442 q 371 658 247 658 q 499 617 454 658 q 543 514 543 576 q 515 396 543 446 q 449 320 488 346 q 358 279 411 294 q 269 260 306 264 q 196 257 233 257 q 150 260 178 257 q 196 106 156 156 q 299 56 236 56 q 444 142 389 56 m 435 499 q 412 564 435 538 q 347 590 389 590 q 217 513 274 590 q 151 317 161 436 q 217 319 190 317 q 290 331 244 321 q 363 359 335 342 q 413 413 390 376 q 435 499 435 449 m 233 724 q 190 742 207 724 q 174 789 174 760 q 197 848 174 824 q 251 872 221 872 q 294 853 276 872 q 311 804 311 833 q 286 747 311 771 q 233 724 261 724 m 465 724 q 422 742 439 724 q 406 789 406 760 q 429 848 406 824 q 483 872 453 872 q 526 853 508 872 q 543 804 543 833 q 518 747 543 771 q 465 724 493 724 z "},"ì":{"ha":278,"x_min":-1,"x_max":263,"o":"m 161 658 q 221 571 221 658 q 190 344 221 519 q 160 138 160 169 q 204 50 160 81 q 133 -14 185 -14 q 64 113 64 -14 q 90 317 64 178 q 115 515 115 457 q 88 588 115 581 q 113 633 90 607 q 161 658 135 658 m 33 860 q -1 910 -1 882 q 47 974 -1 947 q 93 926 64 953 q 147 881 122 900 q 201 839 172 861 q 236 813 231 817 q 263 774 263 793 q 240 729 263 751 q 144 791 222 744 q 33 860 67 838 z "},"í":{"ha":278,"x_min":46,"x_max":325,"o":"m 161 658 q 221 571 221 658 q 190 344 221 519 q 160 138 160 169 q 204 50 160 81 q 133 -14 185 -14 q 64 113 64 -14 q 90 317 64 178 q 115 515 115 457 q 88 588 115 581 q 113 633 90 607 q 161 658 135 658 m 285 839 q 169 783 254 822 q 64 729 85 744 q 46 769 46 747 q 75 811 46 797 q 283 956 221 894 q 325 893 325 925 q 285 839 325 863 z "},"î":{"ha":278,"x_min":-18,"x_max":340,"o":"m 193 943 q 340 767 340 832 q 303 721 340 736 q 251 785 283 754 q 197 831 219 815 l 176 844 q 13 732 33 732 q -18 757 -4 732 q 193 943 76 861 m 161 658 q 221 571 221 658 q 190 344 221 519 q 160 138 160 169 q 204 50 160 81 q 133 -14 185 -14 q 64 113 64 -14 q 90 317 64 178 q 115 515 115 457 q 88 588 115 581 q 113 633 90 607 q 161 658 135 658 z "},"ï":{"ha":279,"x_min":-11,"x_max":358,"o":"m 167 658 q 226 571 226 658 q 190 344 226 519 q 154 138 154 169 q 199 50 154 81 q 128 -14 179 -14 q 58 113 58 -14 q 90 317 58 178 q 121 515 121 457 q 93 588 121 581 q 118 633 96 607 q 167 658 140 658 m 49 724 q 6 742 22 724 q -11 789 -11 760 q 13 848 -11 824 q 67 872 36 872 q 109 853 92 872 q 126 804 126 833 q 101 747 126 771 q 49 724 76 724 m 281 724 q 238 742 254 724 q 221 789 221 760 q 244 848 221 824 q 299 872 268 872 q 341 853 324 872 q 358 804 358 833 q 333 747 358 771 q 281 724 308 724 z "},"ð":{"ha":735,"x_min":50,"x_max":635,"o":"m 374 582 q 206 494 267 582 q 144 279 144 406 q 185 123 144 182 q 304 64 226 64 q 472 152 413 64 q 532 367 532 240 q 490 522 532 463 q 374 582 449 582 m 274 792 q 371 856 315 818 q 206 918 301 900 q 204 929 204 924 q 242 969 204 969 q 334 950 275 969 q 439 901 393 931 q 597 1015 544 972 q 618 967 618 992 q 592 926 618 944 l 492 860 q 635 489 635 726 q 616 308 635 393 q 559 148 597 222 q 452 30 521 74 q 293 -14 383 -14 q 115 58 181 -14 q 50 257 50 131 q 147 548 50 438 q 367 658 244 658 q 547 561 482 658 q 425 814 518 722 q 337 751 386 788 q 275 707 288 715 q 247 751 247 729 q 274 792 247 774 z "},"ñ":{"ha":660,"x_min":64,"x_max":596,"o":"m 201 379 q 172 83 172 156 q 176 7 172 42 q 118 -4 151 -4 q 64 43 64 -4 q 94 270 64 63 q 125 511 125 478 q 96 588 125 575 q 121 633 99 607 q 169 658 143 658 q 226 572 226 658 q 222 522 226 547 q 323 623 264 588 q 436 658 382 658 q 544 611 506 658 q 582 488 582 564 q 556 316 582 461 q 529 138 529 171 q 574 50 529 81 q 503 -14 554 -14 q 433 113 433 -14 q 459 313 433 172 q 485 482 485 454 q 466 559 485 531 q 414 588 447 588 q 294 524 360 588 q 201 379 229 461 m 488 818 q 530 836 503 818 q 578 876 557 854 q 596 853 596 869 q 546 775 596 814 q 446 736 496 736 q 369 767 417 736 q 297 799 322 799 q 207 740 271 799 q 189 764 189 750 q 239 842 189 803 q 340 881 289 881 q 415 849 365 881 q 488 818 464 818 z "},"ò":{"ha":660,"x_min":40,"x_max":619,"o":"m 282 -14 q 104 57 168 -14 q 40 251 40 128 q 134 540 40 422 q 372 658 228 658 q 553 587 488 658 q 619 390 619 515 q 523 103 619 221 q 282 -14 426 -14 m 364 589 q 206 492 264 589 q 149 269 149 396 q 187 116 149 176 q 296 56 225 56 q 453 150 396 56 q 510 369 510 244 q 472 527 510 465 q 364 589 435 589 m 221 860 q 186 910 186 882 q 235 974 186 947 q 281 926 251 953 q 335 881 310 900 q 389 839 360 861 q 424 813 418 817 q 450 774 450 793 q 428 729 450 751 q 332 791 410 744 q 221 860 254 838 z "},"ó":{"ha":660,"x_min":40,"x_max":619,"o":"m 282 -14 q 104 57 168 -14 q 40 251 40 128 q 134 540 40 422 q 372 658 228 658 q 553 587 488 658 q 619 390 619 515 q 523 103 619 221 q 282 -14 426 -14 m 364 589 q 206 492 264 589 q 149 269 149 396 q 187 116 149 176 q 296 56 225 56 q 453 150 396 56 q 510 369 510 244 q 472 527 510 465 q 364 589 435 589 m 543 839 q 428 783 513 822 q 322 729 343 744 q 304 769 304 747 q 333 811 304 797 q 542 956 479 894 q 583 893 583 925 q 543 839 583 863 z "},"ô":{"ha":660,"x_min":40,"x_max":619,"o":"m 417 943 q 564 767 564 832 q 526 721 564 736 q 475 785 507 754 q 422 831 443 815 l 400 844 q 236 732 257 732 q 206 757 219 732 q 417 943 300 861 m 282 -14 q 104 57 168 -14 q 40 251 40 128 q 134 540 40 422 q 372 658 228 658 q 553 587 488 658 q 619 390 619 515 q 523 103 619 221 q 282 -14 426 -14 m 364 589 q 206 492 264 589 q 149 269 149 396 q 187 116 149 176 q 296 56 225 56 q 453 150 396 56 q 510 369 510 244 q 472 527 510 465 q 364 589 435 589 z "},"õ":{"ha":660,"x_min":40,"x_max":619,"o":"m 282 -14 q 104 57 168 -14 q 40 251 40 128 q 134 540 40 422 q 372 658 228 658 q 553 587 488 658 q 619 390 619 515 q 523 103 619 221 q 282 -14 426 -14 m 364 589 q 206 492 264 589 q 149 269 149 396 q 187 116 149 176 q 296 56 225 56 q 453 150 396 56 q 510 369 510 244 q 472 527 510 465 q 364 589 435 589 m 494 818 q 537 836 510 818 q 585 876 564 854 q 603 853 603 869 q 553 775 603 814 q 453 736 503 736 q 376 767 424 736 q 304 799 329 799 q 214 740 278 799 q 196 764 196 750 q 246 842 196 803 q 347 881 296 881 q 422 849 372 881 q 494 818 471 818 z "},"ö":{"ha":660,"x_min":40,"x_max":619,"o":"m 282 -14 q 104 57 168 -14 q 40 251 40 128 q 134 540 40 422 q 372 658 228 658 q 553 587 488 658 q 619 390 619 515 q 523 103 619 221 q 282 -14 426 -14 m 364 589 q 206 492 264 589 q 149 269 149 396 q 187 116 149 176 q 296 56 225 56 q 453 150 396 56 q 510 369 510 244 q 472 527 510 465 q 364 589 435 589 m 269 724 q 226 742 243 724 q 210 789 210 760 q 233 848 210 824 q 288 872 257 872 q 330 853 313 872 q 347 804 347 833 q 322 747 347 771 q 269 724 297 724 m 501 724 q 458 742 475 724 q 442 789 442 760 q 465 848 442 824 q 519 872 489 872 q 562 853 544 872 q 579 804 579 833 q 554 747 579 771 q 501 724 529 724 z "},"÷":{"ha":797,"x_min":124,"x_max":675,"o":"m 675 358 q 661 317 675 333 q 625 300 647 300 q 526 306 603 300 q 408 311 449 311 q 128 300 250 311 q 124 342 124 321 q 136 382 124 364 q 174 400 149 400 q 261 395 178 400 q 406 390 344 390 q 671 400 586 390 q 675 358 675 388 m 458 532 q 447 521 458 532 q 404 510 436 510 q 350 532 372 510 q 328 589 328 554 q 350 645 328 622 q 404 668 372 668 q 458 645 436 668 q 479 589 479 622 q 458 532 479 554 m 458 54 q 447 43 458 54 q 404 32 436 32 q 350 54 372 32 q 328 111 328 76 q 350 167 328 144 q 404 190 372 190 q 458 167 436 190 q 479 111 479 144 q 458 54 479 76 z "},"ø":{"ha":674,"x_min":40,"x_max":633,"o":"m 488 494 l 218 82 q 296 56 251 56 q 453 150 396 56 q 510 369 510 244 q 488 494 510 433 m 364 589 q 206 492 264 589 q 149 269 149 396 q 174 142 149 194 l 449 554 q 364 589 414 589 m 282 -14 q 172 8 224 -14 l 90 -118 q 40 -79 40 -115 q 51 -49 40 -67 l 115 47 q 40 251 40 122 q 134 540 40 422 q 372 658 228 658 q 497 631 442 658 q 583 774 543 706 q 633 735 633 771 q 622 704 633 719 l 549 589 q 619 390 619 514 q 523 103 619 221 q 282 -14 426 -14 z "},"ù":{"ha":657,"x_min":74,"x_max":601,"o":"m 442 144 q 348 32 407 78 q 219 -14 289 -14 q 112 33 150 -14 q 74 157 74 81 q 100 328 74 183 q 126 507 126 474 q 97 588 126 576 q 124 635 103 611 q 171 658 144 658 q 216 631 206 658 q 226 547 226 604 q 199 347 226 488 q 171 163 171 206 q 190 85 171 114 q 242 57 208 57 q 361 120 296 57 q 454 265 426 183 q 501 644 496 542 q 547 651 526 651 q 601 607 601 651 q 567 385 601 593 q 532 129 532 176 q 576 50 532 78 q 552 6 569 26 q 507 -14 535 -14 q 440 97 440 -14 q 442 144 440 129 m 229 860 q 194 910 194 882 q 243 974 194 947 q 289 926 260 953 q 343 881 318 900 q 397 839 368 861 q 432 813 426 817 q 458 774 458 793 q 436 729 458 751 q 340 791 418 744 q 229 860 263 838 z "},"ú":{"ha":657,"x_min":74,"x_max":601,"o":"m 442 144 q 348 32 407 78 q 219 -14 289 -14 q 112 33 150 -14 q 74 157 74 81 q 100 328 74 183 q 126 507 126 474 q 97 588 126 576 q 124 635 103 611 q 171 658 144 658 q 216 631 206 658 q 226 547 226 604 q 199 347 226 488 q 171 163 171 206 q 190 85 171 114 q 242 57 208 57 q 361 120 296 57 q 454 265 426 183 q 501 644 496 542 q 547 651 526 651 q 601 607 601 651 q 567 385 601 593 q 532 129 532 176 q 576 50 532 78 q 552 6 569 26 q 507 -14 535 -14 q 440 97 440 -14 q 442 144 440 129 m 551 839 q 436 783 521 822 q 331 729 351 744 q 313 769 313 747 q 342 811 313 797 q 550 956 488 894 q 592 893 592 925 q 551 839 592 863 z "},"û":{"ha":657,"x_min":74,"x_max":601,"o":"m 410 943 q 557 767 557 832 q 519 721 557 736 q 468 785 500 754 q 414 831 436 815 l 393 844 q 229 732 250 732 q 199 757 213 732 q 410 943 293 861 m 442 144 q 348 32 407 78 q 219 -14 289 -14 q 112 33 150 -14 q 74 157 74 81 q 100 328 74 183 q 126 507 126 474 q 97 588 126 576 q 124 635 103 611 q 171 658 144 658 q 216 631 206 658 q 226 547 226 604 q 199 347 226 488 q 171 163 171 206 q 190 85 171 114 q 242 57 208 57 q 361 120 296 57 q 454 265 426 183 q 501 644 496 542 q 547 651 526 651 q 601 607 601 651 q 567 385 601 593 q 532 129 532 176 q 576 50 532 78 q 552 6 569 26 q 507 -14 535 -14 q 440 97 440 -14 q 442 144 440 129 z "},"ü":{"ha":657,"x_min":74,"x_max":601,"o":"m 442 144 q 348 32 407 78 q 219 -14 289 -14 q 112 33 150 -14 q 74 157 74 81 q 100 328 74 183 q 126 507 126 474 q 97 588 126 576 q 124 635 103 611 q 171 658 144 658 q 216 631 206 658 q 226 547 226 604 q 199 347 226 488 q 171 163 171 206 q 190 85 171 114 q 242 57 208 57 q 361 120 296 57 q 454 265 426 183 q 501 644 496 542 q 547 651 526 651 q 601 607 601 651 q 567 385 601 593 q 532 129 532 176 q 576 50 532 78 q 552 6 569 26 q 507 -14 535 -14 q 440 97 440 -14 q 442 144 440 129 m 256 724 q 213 742 229 724 q 196 789 196 760 q 219 848 196 824 q 274 872 243 872 q 316 853 299 872 q 333 804 333 833 q 308 747 333 771 q 256 724 283 724 m 488 724 q 444 742 461 724 q 428 789 428 760 q 451 848 428 824 q 506 872 475 872 q 548 853 531 872 q 565 804 565 833 q 540 747 565 771 q 488 724 515 724 z "},"ý":{"ha":571,"x_min":-250,"x_max":550,"o":"m 283 100 q 446 549 446 368 q 426 638 446 588 q 492 658 463 658 q 550 567 550 658 q 479 301 550 463 q 308 -10 408 139 q 113 -247 197 -175 q -99 -319 28 -319 q -206 -297 -161 -319 q -250 -237 -250 -275 q -189 -164 -250 -193 q -144 -226 -178 -203 q -67 -250 -110 -250 q 15 -230 -25 -250 q 92 -171 56 -210 q 153 -98 128 -132 q 211 -14 179 -64 q 144 324 203 101 q 18 604 86 546 q 99 658 57 658 q 168 592 144 658 q 283 100 218 451 m 489 839 q 374 783 458 822 q 268 729 289 744 q 250 769 250 747 q 279 811 250 797 q 488 956 425 894 q 529 893 529 925 q 489 839 529 863 z "},"þ":{"ha":654,"x_min":18,"x_max":614,"o":"m 211 408 q 197 322 206 369 q 178 212 189 274 q 163 117 168 150 q 299 54 228 54 q 446 144 386 54 q 506 390 506 233 q 478 531 506 474 q 401 589 451 589 q 306 539 360 589 q 211 408 251 489 m 236 1031 q 296 943 296 1031 q 236 543 296 885 q 429 658 318 658 q 563 595 511 658 q 614 414 614 532 q 521 107 614 228 q 306 -14 428 -14 q 151 47 221 -14 q 114 -201 114 -168 q 158 -289 114 -258 q 88 -353 139 -353 q 18 -226 18 -353 q 28 -121 18 -192 q 60 71 39 -50 q 90 246 82 192 q 129 469 100 304 q 174 740 158 635 q 190 888 190 846 q 163 960 190 953 q 188 1005 165 979 q 236 1031 210 1031 z "},"ÿ":{"ha":571,"x_min":-250,"x_max":550,"o":"m 283 100 q 446 549 446 368 q 426 638 446 588 q 492 658 463 658 q 550 567 550 658 q 479 301 550 463 q 308 -10 408 139 q 113 -247 197 -175 q -99 -319 28 -319 q -206 -297 -161 -319 q -250 -237 -250 -275 q -189 -164 -250 -193 q -144 -226 -178 -203 q -67 -250 -110 -250 q 15 -230 -25 -250 q 92 -171 56 -210 q 153 -98 128 -132 q 211 -14 179 -64 q 144 324 203 101 q 18 604 86 546 q 99 658 57 658 q 168 592 144 658 q 283 100 218 451 m 175 724 q 132 742 149 724 q 115 789 115 760 q 139 848 115 824 q 193 872 163 872 q 235 853 218 872 q 253 804 253 833 q 228 747 253 771 q 175 724 203 724 m 407 724 q 364 742 381 724 q 347 789 347 760 q 371 848 347 824 q 425 872 394 872 q 467 853 450 872 q 485 804 485 833 q 460 747 485 771 q 407 724 435 724 z "},"ı":{"ha":279,"x_min":58,"x_max":226,"o":"m 167 658 q 226 571 226 658 q 190 344 226 519 q 154 138 154 169 q 199 50 154 81 q 128 -14 179 -14 q 58 113 58 -14 q 90 317 58 178 q 121 515 121 457 q 93 588 121 581 q 118 633 96 607 q 167 658 140 658 z "},"Ł":{"ha":536,"x_min":-47,"x_max":536,"o":"m 240 925 q 303 881 303 925 q 294 820 303 872 q 272 686 285 768 q 251 544 260 604 q 410 665 318 592 q 447 617 447 647 q 421 578 447 596 l 239 451 q 201 86 201 157 q 271 83 240 83 q 423 93 346 83 q 525 115 500 103 q 536 57 536 78 q 492 7 536 17 q 325 -3 449 -3 q 133 0 169 -3 q 94 13 106 1 q 83 49 83 25 q 122 368 83 90 q 48 311 94 347 q -10 267 1 275 q -47 317 -47 289 q -21 354 -47 335 l 135 463 q 185 921 171 718 q 240 925 206 925 z "},"ł":{"ha":296,"x_min":-61,"x_max":433,"o":"m 236 1031 q 296 943 296 1031 q 244 590 296 901 q 396 707 294 626 q 433 658 433 689 q 407 619 433 638 l 228 494 q 172 138 172 158 q 217 50 172 81 q 146 -14 197 -14 q 76 113 76 -14 q 118 417 76 186 q 39 357 88 394 q -24 308 -10 319 q -61 358 -61 331 q -35 396 -61 376 l 135 514 q 190 888 190 822 q 163 960 190 953 q 188 1005 165 979 q 236 1031 210 1031 z "},"Œ":{"ha":1168,"x_min":67,"x_max":1189,"o":"m 182 400 q 245 149 182 229 q 435 69 308 69 q 617 97 510 69 q 660 416 621 131 q 706 817 699 701 q 531 850 617 850 q 276 729 369 850 q 182 400 182 608 m 67 365 q 195 781 67 625 q 528 936 324 936 q 707 904 611 936 q 982 925 810 925 q 1182 903 1160 925 q 1189 876 1189 894 q 1169 806 1189 840 q 942 835 1103 835 q 817 831 888 835 q 783 536 814 765 q 1019 542 974 536 q 1022 511 1022 519 q 960 450 1022 454 q 771 449 926 449 q 733 85 733 156 q 803 82 772 82 q 955 92 878 82 q 1057 114 1032 101 q 1068 56 1068 76 q 1027 7 1068 18 q 900 -4 986 -4 l 803 -4 q 619 18 651 -4 q 413 -15 508 -15 q 162 76 257 -15 q 67 365 67 167 z "},"œ":{"ha":1049,"x_min":40,"x_max":1007,"o":"m 899 499 q 876 564 899 538 q 811 590 853 590 q 681 513 738 590 q 615 317 625 436 q 681 319 654 317 q 753 331 708 321 q 826 359 799 342 q 876 413 854 376 q 899 499 899 449 m 364 589 q 206 492 264 589 q 149 269 149 396 q 187 116 149 176 q 296 56 225 56 q 453 150 396 56 q 510 369 510 244 q 472 527 510 465 q 364 589 435 589 m 908 142 q 951 83 951 115 q 893 14 951 42 q 758 -14 835 -14 q 532 125 585 -14 q 282 -14 436 -14 q 104 57 168 -14 q 40 251 40 128 q 134 540 40 422 q 372 658 228 658 q 589 519 538 658 q 703 624 638 589 q 835 658 768 658 q 963 617 918 658 q 1007 514 1007 576 q 979 396 1007 446 q 913 320 951 346 q 822 279 875 294 q 733 260 769 264 q 660 257 697 257 q 614 260 642 257 q 660 106 619 156 q 763 56 700 56 q 908 142 853 56 z "},"Š":{"ha":639,"x_min":35,"x_max":639,"o":"m 389 986 q 242 1163 242 1094 q 279 1208 242 1194 q 331 1144 299 1175 q 383 1100 363 1114 l 406 1085 q 501 1160 451 1122 q 568 1197 551 1197 q 599 1172 585 1197 q 389 986 494 1061 m 558 738 q 493 813 543 783 q 386 843 443 843 q 268 797 317 843 q 219 665 219 751 q 258 576 219 610 q 351 526 296 543 q 460 490 406 510 q 553 425 515 469 q 592 308 592 381 q 504 71 592 156 q 269 -14 417 -14 q 106 22 176 -14 q 35 106 35 57 q 107 190 35 158 q 182 106 125 139 q 303 74 239 74 q 435 126 379 74 q 492 269 492 178 q 453 355 492 324 q 360 402 415 386 q 250 438 306 418 q 156 507 194 458 q 118 635 118 556 q 207 853 118 775 q 431 932 296 932 q 573 901 507 932 q 639 817 639 871 q 558 738 639 753 z "},"š":{"ha":539,"x_min":7,"x_max":504,"o":"m 294 731 q 147 907 147 839 q 185 953 147 939 q 236 889 204 919 q 289 844 268 858 l 311 829 q 349 859 321 836 q 390 892 376 882 q 423 915 403 901 q 455 935 443 929 q 474 942 467 942 q 504 917 490 942 q 294 731 400 806 m 411 492 q 362 557 403 532 q 272 582 321 582 q 185 553 222 582 q 147 471 147 524 q 178 408 147 431 q 255 374 210 385 q 344 349 300 364 q 420 297 389 335 q 451 194 451 258 q 379 39 451 92 q 194 -14 307 -14 q 63 15 119 -14 q 7 88 7 44 q 72 156 7 139 q 126 88 81 111 q 232 64 171 64 q 335 94 297 64 q 372 167 372 124 q 341 233 372 208 q 265 272 310 258 q 174 300 219 285 q 98 352 129 315 q 67 447 67 389 q 139 606 67 553 q 314 660 211 660 q 424 634 372 660 q 476 561 476 608 q 411 492 476 508 z "},"Ÿ":{"ha":640,"x_min":69,"x_max":710,"o":"m 69 860 q 88 881 75 865 q 106 900 101 896 q 121 913 111 904 q 139 924 131 921 q 157 926 147 926 q 214 879 194 926 q 363 513 272 765 q 515 742 433 601 q 607 933 597 882 q 710 876 710 933 q 597 685 710 842 q 392 419 485 529 l 374 282 q 357 92 357 160 q 363 7 357 44 q 296 -4 338 -4 q 238 54 238 -4 q 242 97 238 63 q 260 226 247 132 q 286 419 274 321 q 69 860 156 788 m 293 989 q 250 1007 267 989 q 233 1054 233 1025 q 257 1113 233 1089 q 311 1138 281 1138 q 353 1118 336 1138 q 371 1069 371 1099 q 346 1013 371 1036 q 293 989 321 989 m 525 989 q 482 1007 499 989 q 465 1054 465 1025 q 489 1113 465 1089 q 543 1138 513 1138 q 585 1118 568 1138 q 603 1069 603 1099 q 578 1013 603 1036 q 525 989 553 989 z "},"Ž":{"ha":710,"x_min":56,"x_max":707,"o":"m 433 986 q 286 1163 286 1094 q 324 1208 286 1194 q 375 1144 343 1175 q 428 1100 407 1114 l 450 1085 q 488 1115 460 1092 q 528 1147 515 1138 q 562 1171 542 1157 q 594 1191 582 1185 q 613 1197 606 1197 q 643 1172 629 1197 q 433 986 539 1061 m 196 926 q 375 908 236 926 q 581 889 514 889 q 675 907 643 889 q 707 826 707 875 q 679 738 707 769 l 292 286 q 161 114 213 192 q 196 115 172 115 q 363 98 247 115 q 528 81 479 81 q 651 103 608 81 q 667 57 667 76 q 531 -14 667 -14 q 380 3 494 -14 q 203 21 265 21 q 93 4 138 21 q 56 85 56 53 q 81 165 56 117 q 594 799 163 311 q 419 816 539 799 q 236 833 299 833 q 119 807 172 833 q 103 860 103 847 q 196 926 103 926 z "},"ž":{"ha":544,"x_min":15,"x_max":538,"o":"m 328 729 q 181 906 181 838 q 218 951 181 938 q 269 887 238 918 q 322 842 301 856 l 344 828 q 382 858 354 835 q 423 890 410 881 q 456 914 436 900 q 488 934 476 928 q 507 940 500 940 q 538 915 524 940 q 328 729 433 804 m 143 658 q 278 645 174 658 q 433 632 383 632 q 513 644 488 632 q 536 586 536 622 q 513 524 536 549 q 133 93 249 243 q 157 94 142 94 q 270 82 193 94 q 381 69 347 69 q 469 86 436 69 q 481 43 481 68 q 379 -14 481 -14 q 267 -1 351 -14 q 135 11 182 11 q 42 -1 79 11 q 15 57 15 35 q 33 114 15 82 q 410 557 96 219 q 293 566 371 557 q 172 575 215 575 q 89 556 128 575 q 78 604 78 582 q 143 658 78 658 z "},"ƒ":{"ha":797,"x_min":10,"x_max":758,"o":"m 443 522 l 379 181 q 288 -76 349 14 q 110 -167 228 -167 q 35 -149 60 -167 q 10 -104 10 -132 q 31 -56 10 -79 q 92 -25 53 -33 q 149 -90 101 -90 q 230 -43 204 -90 q 276 115 256 4 l 354 524 q 269 518 307 522 q 268 529 268 522 q 314 575 268 571 l 363 576 q 399 715 379 656 q 453 826 419 774 q 536 908 486 879 q 651 936 586 936 q 732 918 706 936 q 758 872 758 900 q 738 824 758 847 q 678 794 717 801 q 611 860 667 860 q 560 847 582 860 q 523 815 538 833 q 496 756 508 796 q 476 681 483 715 q 456 582 468 646 q 635 599 574 589 q 636 586 636 594 q 619 532 636 546 q 560 518 601 518 l 443 522 z "},"ˆ":{"ha":486,"x_min":101,"x_max":460,"o":"m 313 943 q 460 767 460 832 q 422 721 460 736 q 371 785 403 754 q 317 831 339 815 l 296 844 q 132 732 153 732 q 101 757 115 732 q 313 943 196 861 z "},"ˇ":{"ha":486,"x_min":167,"x_max":524,"o":"m 314 721 q 167 897 167 829 q 204 943 167 929 q 256 878 224 910 q 308 833 288 847 l 331 819 q 368 849 340 826 q 409 882 396 872 q 442 906 422 892 q 474 926 463 919 q 493 932 486 932 q 524 907 510 932 q 314 721 419 796 z "},"˘":{"ha":486,"x_min":174,"x_max":536,"o":"m 265 862 q 277 847 265 862 q 344 832 289 832 q 432 861 400 832 q 490 954 464 890 q 536 919 536 950 q 476 803 536 865 q 333 742 415 742 q 217 792 260 742 q 174 899 174 843 q 232 954 174 949 q 265 862 240 892 z "},"˙":{"ha":486,"x_min":242,"x_max":379,"o":"m 301 724 q 258 742 275 724 q 242 789 242 760 q 265 848 242 824 q 319 872 289 872 q 362 853 344 872 q 379 804 379 833 q 354 747 379 771 q 301 724 329 724 z "},"˚":{"ha":486,"x_min":219,"x_max":458,"o":"m 324 722 q 247 750 275 722 q 219 826 219 778 q 259 928 219 888 q 356 969 299 969 q 431 942 403 969 q 458 865 458 914 q 419 763 458 804 q 324 722 381 722 m 350 924 q 297 898 315 924 q 278 832 278 872 q 291 785 278 803 q 329 768 304 768 q 381 794 363 768 q 399 858 399 819 q 385 906 399 888 q 350 924 372 924 z "},"˛":{"ha":486,"x_min":132,"x_max":376,"o":"m 335 21 l 369 10 q 251 -83 285 -35 q 217 -189 217 -131 q 231 -233 217 -217 q 268 -249 246 -249 q 349 -201 314 -249 q 376 -237 376 -219 q 337 -285 376 -265 q 247 -304 297 -304 q 165 -280 199 -304 q 132 -203 132 -256 q 185 -72 132 -124 q 335 21 238 -21 z "},"˜":{"ha":486,"x_min":108,"x_max":515,"o":"m 407 818 q 449 836 422 818 q 497 876 476 854 q 515 853 515 869 q 465 775 515 814 q 365 736 415 736 q 289 767 336 736 q 217 799 242 799 q 126 740 190 799 q 108 764 108 750 q 158 842 108 803 q 260 881 208 881 q 334 849 285 881 q 407 818 383 818 z "},"˝":{"ha":486,"x_min":-11,"x_max":504,"o":"m 463 860 q 349 790 429 836 q 250 728 269 743 q 236 764 236 744 q 262 809 236 789 q 349 872 288 829 q 465 975 410 915 q 504 915 504 950 q 463 860 504 885 m 215 860 q 102 790 182 836 q 3 728 22 743 q -11 764 -11 744 q 15 809 -11 789 q 101 872 40 829 q 218 975 163 915 q 257 915 257 950 q 215 860 257 885 z "},"π":{"ha":656,"x_min":28,"x_max":704,"o":"m 33 549 q 28 581 28 564 q 108 649 28 649 q 153 648 111 649 q 265 647 194 647 q 411 646 336 646 l 510 646 q 699 672 635 646 q 704 640 704 656 q 624 572 704 572 l 553 572 q 508 326 538 503 q 479 81 479 150 q 489 7 479 35 q 435 -4 464 -4 q 375 43 375 -4 q 383 106 375 57 q 401 226 390 156 q 418 339 413 296 q 453 574 432 449 q 358 575 419 575 l 253 575 l 185 68 q 164 13 179 29 q 114 -4 149 -4 q 68 7 90 -4 q 121 192 107 74 q 142 371 132 282 q 158 512 153 460 q 165 574 164 564 q 33 549 93 571 z "},"–":{"ha":797,"x_min":42,"x_max":632,"o":"m 235 403 l 471 403 q 631 413 579 403 q 632 397 632 407 q 617 340 632 364 q 571 317 603 317 q 515 320 558 317 q 447 324 471 324 l 214 324 q 43 313 118 324 q 42 329 42 319 q 103 408 42 408 q 153 406 106 408 q 235 403 200 403 z "},"—":{"ha":997,"x_min":42,"x_max":956,"o":"m 954 413 q 955 406 954 411 q 956 399 956 400 q 942 342 956 367 q 899 317 928 317 q 846 320 888 317 q 769 324 804 324 l 188 324 q 42 313 106 324 q 96 408 42 408 q 148 406 99 408 q 236 403 197 403 l 817 403 q 954 413 900 403 z "},"‘":{"ha":299,"x_min":111,"x_max":326,"o":"m 296 1025 q 326 993 326 1025 q 321 967 326 978 l 314 967 q 235 928 269 967 q 201 846 201 889 q 257 775 201 788 q 265 742 265 758 q 240 684 265 708 q 179 660 214 660 q 131 683 150 660 q 111 753 111 706 q 169 935 111 846 q 296 1025 226 1025 z "},"’":{"ha":301,"x_min":97,"x_max":315,"o":"m 222 844 q 168 913 222 900 q 161 946 161 931 q 187 1003 161 979 q 247 1028 213 1028 q 296 1005 276 1028 q 315 935 315 982 q 256 753 315 843 q 128 663 196 663 q 97 696 97 663 q 103 721 97 704 l 108 721 q 189 760 156 721 q 222 844 222 799 z "},"‚":{"ha":308,"x_min":0,"x_max":218,"o":"m 125 -17 q 71 51 125 39 q 64 85 64 69 q 90 142 64 118 q 150 167 115 167 q 199 144 179 167 q 218 74 218 121 q 158 -108 218 -18 q 31 -199 99 -199 q 0 -165 0 -199 q 6 -140 0 -157 l 11 -140 q 92 -101 58 -140 q 125 -17 125 -62 z "},"“":{"ha":572,"x_min":111,"x_max":600,"o":"m 569 1025 q 600 993 600 1025 q 594 967 600 978 l 588 967 q 509 928 543 967 q 475 846 475 889 q 531 775 475 788 q 539 742 539 758 q 513 684 539 708 q 453 660 488 660 q 404 683 424 660 q 385 753 385 706 q 442 935 385 846 q 569 1025 500 1025 m 296 1025 q 326 993 326 1025 q 321 967 326 978 l 314 967 q 235 928 269 967 q 201 846 201 889 q 257 775 201 788 q 265 742 265 758 q 240 684 265 708 q 179 660 214 660 q 131 683 150 660 q 111 753 111 706 q 169 935 111 846 q 296 1025 226 1025 z "},"”":{"ha":569,"x_min":97,"x_max":583,"o":"m 222 844 q 168 913 222 900 q 161 946 161 931 q 187 1003 161 979 q 247 1028 213 1028 q 296 1005 276 1028 q 315 935 315 982 q 256 753 315 843 q 128 663 196 663 q 97 696 97 663 q 103 721 97 704 l 108 721 q 189 760 156 721 q 222 844 222 799 m 490 844 q 436 913 490 900 q 429 946 429 931 q 455 1003 429 979 q 515 1028 481 1028 q 564 1005 544 1028 q 583 935 583 982 q 524 753 583 843 q 396 663 464 663 q 365 696 365 663 q 371 721 365 704 l 376 721 q 457 760 424 721 q 490 844 490 799 z "},"„":{"ha":576,"x_min":0,"x_max":486,"o":"m 125 -17 q 71 51 125 39 q 64 85 64 69 q 90 142 64 118 q 150 167 115 167 q 199 144 179 167 q 218 74 218 121 q 158 -108 218 -18 q 31 -199 99 -199 q 0 -165 0 -199 q 6 -140 0 -157 l 11 -140 q 92 -101 58 -140 q 125 -17 125 -62 m 393 -17 q 339 51 393 39 q 332 85 332 69 q 358 142 332 118 q 418 167 383 167 q 467 144 447 167 q 486 74 486 121 q 426 -108 486 -18 q 299 -199 367 -199 q 268 -165 268 -199 q 274 -140 268 -157 l 279 -140 q 360 -101 326 -140 q 393 -17 393 -62 z "},"†":{"ha":608,"x_min":93,"x_max":608,"o":"m 96 638 q 158 703 104 703 q 183 699 165 703 q 235 691 201 696 q 315 685 269 686 q 331 926 318 706 q 392 935 369 935 q 449 926 415 935 q 397 685 400 701 q 603 718 496 686 q 608 683 608 706 q 588 617 608 638 q 518 597 568 597 q 455 601 494 597 q 386 606 415 606 q 344 230 358 378 q 326 26 329 82 q 321 -40 322 -29 q 297 -91 317 -64 q 258 -133 276 -118 l 239 -147 q 188 -51 188 -101 q 198 10 188 -36 q 238 217 208 57 q 304 607 268 376 q 185 599 253 606 q 93 590 118 592 q 96 638 93 615 z "},"‡":{"ha":608,"x_min":24,"x_max":608,"o":"m 375 390 q 353 294 371 364 q 328 182 335 225 q 447 190 379 183 q 539 199 514 197 q 536 151 539 174 q 474 86 528 86 q 449 90 467 86 q 397 98 431 93 q 317 104 363 103 q 301 -137 314 83 q 240 -146 261 -146 q 183 -137 217 -146 q 235 104 232 88 q 29 71 136 103 q 24 106 24 83 q 46 172 24 153 q 114 192 68 192 q 177 188 138 192 q 246 183 217 183 q 251 261 251 224 q 251 287 251 267 q 250 318 250 307 q 254 390 250 357 q 278 492 258 421 q 304 607 297 564 q 185 599 253 606 q 93 590 118 592 q 96 638 93 615 q 158 703 104 703 q 183 699 165 703 q 235 691 201 696 q 315 685 269 686 q 331 926 318 706 q 392 935 369 935 q 449 926 415 935 q 397 685 400 701 q 603 718 496 686 q 608 683 608 706 q 587 617 608 636 q 519 597 565 597 q 456 601 496 597 q 386 606 415 606 q 379 488 381 560 q 375 390 378 417 z "},"•":{"ha":390,"x_min":56,"x_max":342,"o":"m 179 215 q 90 252 125 215 q 56 347 56 289 q 105 476 56 419 q 222 532 154 532 q 308 494 274 532 q 342 397 342 456 q 293 269 342 322 q 179 215 244 215 z "},"…":{"ha":1038,"x_min":42,"x_max":982,"o":"m 111 -14 q 62 6 82 -14 q 42 60 42 26 q 69 131 42 100 q 133 163 97 163 q 182 141 163 163 q 201 88 201 119 q 175 16 201 46 q 111 -14 149 -14 m 892 -14 q 842 6 863 -14 q 822 60 822 26 q 850 131 822 100 q 914 163 878 163 q 963 141 943 163 q 982 88 982 119 q 956 16 982 46 q 892 -14 929 -14 m 501 -14 q 452 6 472 -14 q 432 60 432 26 q 460 131 432 100 q 524 163 488 163 q 572 141 553 163 q 592 88 592 119 q 565 16 592 46 q 501 -14 539 -14 z "},"‰":{"ha":1439,"x_min":97,"x_max":1342,"o":"m 144 35 l 810 961 q 847 948 831 960 q 864 919 864 936 q 846 882 864 908 q 731 722 828 856 q 378 238 547 472 q 185 -40 294 124 q 131 1 131 -29 q 144 35 133 21 m 1124 -14 q 1006 35 1049 -14 q 964 169 964 85 q 1025 367 964 288 q 1183 447 1086 447 q 1300 399 1258 447 q 1342 265 1342 351 q 1281 67 1342 147 q 1124 -14 1221 -14 m 1175 379 q 1085 322 1119 379 q 1050 192 1050 264 q 1070 95 1050 135 q 1132 56 1090 56 q 1220 115 1186 56 q 1254 249 1254 175 q 1234 342 1254 304 q 1175 379 1214 379 m 674 -14 q 556 35 599 -14 q 514 169 514 85 q 575 367 514 288 q 733 447 636 447 q 850 399 808 447 q 892 265 892 351 q 831 67 892 147 q 674 -14 771 -14 m 725 379 q 635 322 669 379 q 600 192 600 264 q 620 95 600 135 q 682 56 640 56 q 770 115 736 56 q 804 249 804 175 q 784 342 804 304 q 725 379 764 379 m 257 463 q 140 512 182 463 q 97 646 97 561 q 158 844 97 764 q 317 924 219 924 q 433 876 392 924 q 475 742 475 828 q 415 543 475 624 q 257 463 354 463 m 308 856 q 218 798 253 856 q 183 668 183 740 q 203 572 183 611 q 265 532 224 532 q 353 592 319 532 q 388 725 388 651 q 367 818 388 781 q 308 856 347 856 z "},"‹":{"ha":393,"x_min":83,"x_max":372,"o":"m 193 326 q 270 196 232 267 q 308 103 308 125 q 275 61 308 82 q 83 326 188 143 q 349 592 246 515 q 372 560 372 574 q 193 326 372 521 z "},"›":{"ha":394,"x_min":21,"x_max":311,"o":"m 201 326 q 124 455 163 383 q 85 550 85 526 q 118 592 85 567 q 311 326 200 514 q 44 61 140 132 q 21 93 21 79 q 201 326 21 135 z "},"⁄":{"ha":342,"x_min":-200,"x_max":531,"o":"m -189 -79 l 300 733 q 468 1028 411 918 q 511 1018 492 1028 q 531 990 531 1008 q 519 958 531 974 l 31 146 q -137 -149 -87 -50 q -200 -108 -200 -146 q -189 -79 -200 -97 z "},"€":{"ha":797,"x_min":78,"x_max":797,"o":"m 758 807 q 615 857 701 857 q 431 776 522 857 q 299 558 339 696 l 464 558 q 675 565 599 558 l 676 554 q 636 504 676 504 l 286 504 q 274 406 275 456 l 443 406 q 654 413 578 406 l 656 401 q 615 351 656 351 l 274 351 q 352 140 281 213 q 511 67 424 67 q 669 117 596 67 q 690 65 690 100 q 508 -12 690 -12 q 388 8 444 -12 q 285 69 332 28 q 210 183 238 111 q 181 351 182 256 q 79 344 149 350 q 78 358 78 350 q 118 406 78 406 l 182 406 q 192 504 185 461 q 100 497 165 503 q 99 511 99 503 q 139 558 99 558 l 203 558 q 369 838 249 740 q 632 935 489 935 q 797 874 797 935 q 758 807 797 829 z "},"™":{"ha":1196,"x_min":139,"x_max":1104,"o":"m 1088 767 l 1088 558 q 1104 413 1088 471 q 1056 404 1079 404 q 1017 417 1026 404 q 1007 458 1007 429 q 1008 587 1007 497 q 1008 774 1008 676 q 875 410 942 625 q 844 406 864 406 q 797 432 808 406 q 749 555 778 479 q 698 684 719 631 q 658 771 676 738 l 658 558 q 675 413 658 471 q 633 404 650 404 q 594 417 604 404 q 585 458 585 429 q 585 502 585 468 q 586 606 586 536 q 586 772 586 675 q 574 903 586 840 q 628 911 607 911 q 692 868 667 911 q 836 535 763 743 q 982 868 893 707 q 1047 911 1006 911 q 1100 900 1072 911 q 1088 767 1088 847 m 182 906 l 356 906 q 511 910 472 906 q 517 879 517 888 q 476 839 517 839 l 368 839 l 368 572 q 386 413 368 469 q 336 404 356 404 q 297 417 307 404 q 288 458 288 429 l 288 839 q 144 835 194 839 q 139 867 139 851 q 149 897 139 889 q 182 906 160 904 z "},"Ω":{"ha":1190,"x_min":56,"x_max":1093,"o":"m 658 863 q 400 733 499 863 q 301 429 301 603 q 467 128 301 236 q 464 82 467 97 q 372 0 453 0 l 65 0 q 56 176 56 100 q 56 203 56 194 q 64 219 57 211 q 85 226 71 226 q 94 225 90 226 q 151 83 125 128 l 403 83 q 188 444 188 222 q 331 795 188 650 q 668 940 474 940 q 942 844 836 940 q 1049 583 1049 747 q 953 290 1049 419 q 711 83 858 161 l 963 83 q 1061 225 999 124 q 1071 226 1065 226 q 1093 207 1093 226 q 1081 160 1093 199 q 1051 72 1068 122 q 1026 0 1033 22 l 719 0 q 649 64 649 0 q 661 128 649 93 q 931 572 931 279 q 861 785 931 708 q 658 863 792 863 z "},"∂":{"ha":697,"x_min":42,"x_max":649,"o":"m 376 481 q 210 396 282 481 q 138 196 138 311 q 167 100 138 136 q 258 64 197 64 q 437 167 365 64 q 538 411 508 269 q 376 481 461 481 m 203 831 q 196 874 196 851 q 282 935 196 935 q 558 837 467 935 q 649 564 649 739 q 624 370 649 468 q 553 184 600 272 q 427 41 507 96 q 247 -14 347 -14 q 93 48 144 -14 q 42 204 42 110 q 138 452 42 347 q 360 557 233 557 q 550 481 465 557 q 556 572 556 524 q 499 779 556 707 q 331 851 442 851 q 203 831 274 851 z "},"∆":{"ha":921,"x_min":22,"x_max":785,"o":"m 121 97 q 392 83 200 83 q 658 97 576 83 q 486 771 511 643 q 121 97 233 308 m 24 56 q 162 303 61 124 q 332 611 263 483 q 464 863 401 739 q 522 893 479 893 q 556 889 531 893 q 785 56 667 471 q 740 0 779 0 l 53 0 q 22 38 22 0 q 24 56 22 44 z "},"∏":{"ha":907,"x_min":83,"x_max":1004,"o":"m 940 828 q 913 828 933 828 q 854 831 893 829 q 786 833 815 832 q 774 772 785 824 q 752 655 764 719 q 732 531 740 590 q 700 296 713 389 l 696 268 q 679 88 679 151 q 685 7 679 42 q 618 -4 660 -4 q 572 8 586 -4 q 558 47 558 21 q 565 103 558 58 q 583 214 572 147 q 599 321 593 281 l 671 836 l 631 836 q 367 835 435 836 l 294 321 q 278 190 289 278 q 263 75 267 103 q 242 14 257 32 q 190 -4 226 -4 q 133 7 156 -4 q 199 282 172 94 q 232 526 218 415 q 251 688 246 636 q 261 785 257 740 q 265 833 265 831 q 88 815 156 829 q 83 844 83 825 q 102 906 83 889 q 171 922 121 922 q 281 921 193 922 q 417 919 368 919 l 681 919 q 1004 928 867 919 l 1004 917 q 940 828 1004 828 z "},"∑":{"ha":833,"x_min":-29,"x_max":778,"o":"m 325 400 l 113 875 q 125 903 115 892 q 149 914 135 914 l 769 914 q 778 749 778 776 q 747 708 778 708 q 738 710 742 708 q 690 832 713 789 l 249 832 l 431 440 q 432 428 432 435 q 426 408 432 419 q 410 380 421 396 q 390 353 399 364 q 367 322 382 342 q 347 296 351 301 l 132 13 l 636 13 q 733 154 672 53 q 743 156 738 156 q 765 138 765 156 q 694 -86 765 107 l -12 -86 q -29 -58 -29 -86 l 325 400 z "},"−":{"ha":797,"x_min":124,"x_max":675,"o":"m 675 357 q 661 315 675 332 q 625 299 647 299 q 526 304 603 299 q 408 310 449 310 q 128 299 250 310 q 124 340 124 319 q 136 381 124 363 q 174 399 149 399 q 261 394 178 399 q 406 389 344 389 q 671 399 586 389 q 675 357 675 386 z "},"√":{"ha":774,"x_min":44,"x_max":776,"o":"m 414 128 l 713 1024 q 739 1025 722 1025 q 776 999 776 1025 q 621 526 776 982 q 443 6 518 225 q 376 -44 425 -44 l 368 -44 l 164 582 q 64 533 133 569 q 44 564 44 544 q 64 593 44 582 q 242 668 164 649 l 414 128 z "},"∞":{"ha":1018,"x_min":56,"x_max":963,"o":"m 879 367 q 842 457 879 424 q 753 490 806 490 q 681 469 719 490 q 623 429 643 447 q 571 379 603 411 l 558 367 q 751 233 674 233 q 843 271 807 233 q 879 367 879 308 m 267 233 q 341 255 301 233 q 404 297 381 276 q 463 354 428 318 q 424 400 447 375 q 352 458 401 425 q 258 490 303 490 q 173 451 207 490 q 139 357 139 413 q 176 270 139 307 q 267 233 213 233 m 261 567 q 390 528 332 567 q 511 419 447 490 q 588 492 560 468 q 665 542 615 517 q 765 567 715 567 q 906 509 850 567 q 963 364 963 451 q 900 214 963 269 q 751 158 838 158 q 635 192 692 158 q 507 300 579 225 q 435 232 467 258 q 353 182 403 206 q 256 158 304 158 q 113 217 171 158 q 56 361 56 275 q 115 508 56 450 q 261 567 174 567 z "},"∫":{"ha":429,"x_min":-83,"x_max":568,"o":"m 206 556 q 489 1026 271 1026 q 547 1008 525 1026 q 568 963 568 990 q 541 909 568 931 q 483 885 514 888 q 426 950 467 950 q 339 761 361 950 l 278 236 q 176 -125 250 -7 q -6 -243 103 -243 q -62 -225 -42 -243 q -83 -179 -83 -207 q -58 -125 -83 -146 q 0 -101 -32 -104 q 56 -167 17 -167 q 156 44 128 -167 q 180 297 168 131 q 206 556 192 463 z "},"≈":{"ha":797,"x_min":50,"x_max":749,"o":"m 749 233 q 690 148 749 193 q 563 103 632 103 q 437 130 499 103 q 324 184 375 157 q 236 211 274 211 q 169 196 200 211 q 124 165 139 181 q 89 124 110 150 q 50 168 50 138 q 108 251 50 204 q 236 297 165 297 q 358 270 299 297 q 469 216 418 243 q 563 189 521 189 q 629 204 599 189 q 674 235 660 219 q 710 276 689 250 q 749 233 749 264 m 749 511 q 690 426 749 471 q 563 381 632 381 q 437 408 499 381 q 324 462 375 435 q 236 489 274 489 q 169 474 200 489 q 124 443 139 458 q 89 401 110 428 q 50 446 50 415 q 108 528 50 482 q 236 575 165 575 q 358 548 299 575 q 469 494 418 521 q 563 467 521 467 q 629 482 599 467 q 674 513 660 497 q 710 554 689 528 q 749 511 749 542 z "},"≠":{"ha":797,"x_min":124,"x_max":675,"o":"m 675 219 q 661 178 675 194 q 625 161 647 161 q 526 167 603 161 q 408 172 449 172 l 336 172 l 332 164 q 211 -67 258 31 q 147 -22 147 -58 q 156 4 147 -12 l 249 169 q 128 161 218 168 q 124 203 124 182 q 136 243 124 225 q 174 261 149 261 q 199 260 181 261 q 245 257 217 258 q 297 254 274 256 l 407 450 q 128 439 250 450 q 124 481 124 460 q 136 521 124 503 q 174 539 149 539 q 261 534 178 539 q 406 529 344 529 l 451 529 q 578 775 522 658 q 622 763 601 774 q 642 732 642 751 q 633 704 642 719 l 536 531 q 671 539 619 533 q 675 497 675 526 q 661 456 675 472 q 625 439 647 439 q 489 447 597 439 l 381 251 l 406 251 q 671 261 586 251 q 675 219 675 249 z "},"≤":{"ha":797,"x_min":186,"x_max":614,"o":"m 614 71 q 600 29 614 46 q 564 13 586 13 q 492 16 542 13 q 403 19 443 19 q 192 8 314 19 q 188 43 188 29 q 200 83 188 65 q 238 101 213 101 q 315 99 250 101 q 400 96 379 96 q 610 106 525 96 q 614 71 614 93 m 304 417 q 447 317 328 397 q 586 221 565 236 q 558 183 576 199 q 518 167 540 167 q 481 185 501 167 l 186 417 l 481 649 q 518 667 504 667 q 558 651 539 667 q 586 613 578 635 q 494 547 563 594 q 367 460 425 500 q 304 417 308 419 z "},"≥":{"ha":797,"x_min":188,"x_max":615,"o":"m 188 71 q 192 106 188 93 q 401 96 276 96 q 487 99 422 96 q 564 101 551 101 q 601 83 589 101 q 614 43 614 65 q 610 8 614 29 q 399 19 488 19 q 309 16 358 19 q 238 13 260 13 q 201 29 215 13 q 188 71 188 46 m 497 417 q 435 460 493 419 q 308 547 376 500 q 215 613 239 594 q 243 651 224 635 q 283 667 263 667 q 321 649 297 667 l 615 417 l 321 185 q 283 167 300 167 q 243 183 261 167 q 215 221 225 199 q 355 317 236 236 q 497 417 474 397 z "},"◊":{"ha":683,"x_min":56,"x_max":669,"o":"m 582 476 l 419 888 l 143 476 l 304 65 l 582 476 m 56 476 l 363 928 q 429 953 381 953 q 488 928 479 953 l 669 476 l 361 25 q 294 0 340 0 q 236 25 246 0 l 56 476 z "},"":{"ha":797,"x_min":104,"x_max":686,"o":"m 264 575 q 294 503 264 529 q 381 457 324 476 q 397 573 383 481 q 418 725 410 665 q 309 682 354 721 q 264 575 264 643 m 560 228 q 524 301 560 276 q 419 346 488 326 q 381 61 386 107 q 506 108 453 65 q 560 228 560 151 m 494 879 q 492 865 494 878 q 488 834 490 853 q 485 804 486 815 q 623 776 560 803 q 686 701 686 749 q 614 636 686 650 q 561 693 600 669 q 472 724 522 717 q 453 588 467 683 q 432 440 439 492 q 494 422 475 428 q 549 400 514 415 q 599 369 583 385 q 629 325 615 353 q 643 264 643 297 q 563 66 643 133 q 371 -12 483 -1 q 365 -92 365 -51 l 344 -94 q 310 -65 310 -94 q 315 -14 310 -54 q 166 20 228 -10 q 104 92 104 50 q 171 163 104 132 q 229 99 186 126 q 325 64 272 72 l 367 360 q 297 383 325 371 q 240 417 269 396 q 195 471 210 438 q 181 550 181 504 q 250 722 181 656 q 428 800 319 788 q 438 903 436 872 q 461 907 453 907 q 494 879 494 907 z "},"":{"ha":646,"x_min":35,"x_max":611,"o":"m 278 -14 q 99 58 163 -14 q 35 256 35 131 q 123 538 35 417 q 368 660 211 660 q 547 588 482 660 q 611 392 611 517 q 576 199 611 289 q 463 48 540 110 q 278 -14 385 -14 m 288 64 q 464 153 394 64 q 533 354 533 242 q 488 515 533 447 q 357 582 443 582 q 183 493 251 582 q 114 292 114 404 q 159 130 114 196 q 288 64 204 64 z "},"":{"ha":411,"x_min":0,"x_max":356,"o":"m 243 75 q 353 81 294 75 q 356 60 356 69 q 341 15 356 33 q 296 -3 326 -3 q 231 -1 288 -3 q 118 0 174 0 q 4 -1 44 0 q 0 24 0 8 q 85 79 0 79 l 147 79 q 214 574 185 301 q 76 554 110 561 q 75 571 75 560 q 128 636 75 624 q 272 660 239 660 q 317 618 317 660 q 309 563 317 604 q 287 439 301 522 q 260 263 272 356 q 243 75 243 133 z "},"":{"ha":599,"x_min":-14,"x_max":543,"o":"m 113 85 q 393 96 215 85 q 535 114 478 99 q 543 71 543 97 q 442 1 543 6 q 224 -3 338 -3 q 36 0 139 -3 q -14 47 -14 0 q -10 79 -14 63 q 96 146 19 99 q 218 225 172 193 q 320 303 264 257 q 404 397 376 350 q 432 493 432 444 q 319 581 432 581 q 228 549 279 581 q 142 468 176 517 q 100 504 100 475 q 181 607 100 554 q 349 660 261 660 q 483 618 433 660 q 532 508 532 576 q 422 293 532 406 q 113 85 313 181 z "},"":{"ha":511,"x_min":-49,"x_max":476,"o":"m 321 279 q 410 210 379 260 q 440 96 440 161 q 338 -130 440 -39 q 75 -221 235 -221 q -18 -202 13 -221 q -49 -156 -49 -183 q -34 -120 -49 -136 q 1 -99 -19 -104 q 103 -140 35 -140 q 277 -81 210 -140 q 344 68 344 -21 q 293 181 344 140 q 150 221 242 221 q 108 256 108 221 q 114 285 108 271 q 315 340 246 288 q 383 472 383 393 q 354 550 383 519 q 274 581 325 581 q 179 551 228 581 q 97 468 131 522 q 61 479 74 468 q 49 508 49 490 q 126 608 49 558 q 289 658 203 658 q 428 610 379 658 q 476 492 476 563 q 436 369 476 425 q 321 279 396 313 z "},"":{"ha":621,"x_min":0,"x_max":593,"o":"m 83 158 q 224 154 153 154 q 372 158 301 154 q 432 549 403 372 q 83 158 290 418 m 443 642 q 510 658 461 658 q 536 656 519 658 q 526 600 536 650 q 502 460 517 550 q 474 275 488 371 l 457 163 q 588 186 554 171 q 593 153 593 169 q 558 86 593 97 q 446 74 528 75 q 424 -137 424 -62 q 429 -210 424 -178 q 379 -221 403 -221 q 336 -209 349 -221 q 324 -172 324 -197 q 361 72 324 -143 q 31 81 121 72 q 0 119 0 83 q 10 174 0 144 q 230 431 81 268 q 443 642 379 593 z "},"":{"ha":557,"x_min":-49,"x_max":522,"o":"m 415 549 q 183 557 321 549 l 135 342 q 240 349 176 349 q 410 295 350 349 q 471 142 471 242 q 367 -117 471 -14 q 94 -221 264 -221 q -12 -202 24 -221 q -49 -154 -49 -183 q 1 -99 -49 -111 q 113 -140 36 -140 q 303 -68 232 -140 q 374 111 374 4 q 327 234 374 186 q 182 282 281 282 q 67 275 115 282 q 58 310 58 286 q 122 649 58 321 q 374 646 160 646 q 515 657 461 646 q 522 615 522 642 q 415 549 522 549 z "},"":{"ha":607,"x_min":35,"x_max":589,"o":"m 247 -14 q 85 53 136 -14 q 35 233 35 119 q 72 449 35 338 q 172 653 108 560 q 333 806 236 746 q 539 867 431 867 q 589 826 589 867 q 576 782 589 804 q 521 788 550 788 q 353 735 431 788 q 229 601 276 682 q 156 427 182 519 q 129 249 129 335 q 268 64 129 64 q 406 144 354 64 q 458 324 458 225 q 424 441 458 401 q 333 481 390 481 q 263 464 297 481 q 251 496 251 482 q 278 538 251 525 q 367 557 318 557 q 511 501 465 557 q 557 354 557 444 q 470 101 557 217 q 247 -14 383 -14 z "},"":{"ha":554,"x_min":-35,"x_max":554,"o":"m 438 556 q 104 549 239 549 q 18 599 18 549 q 38 657 18 625 q 178 646 94 646 q 550 649 482 646 q 554 614 554 632 q 538 546 554 583 q 362 242 501 469 q 115 -149 222 14 q 89 -187 99 -174 q 67 -210 79 -200 q 43 -219 56 -219 q -35 -165 4 -219 q 218 169 82 -47 q 438 556 354 386 z "},"":{"ha":621,"x_min":21,"x_max":600,"o":"m 378 789 q 264 754 310 789 q 218 664 218 719 q 356 515 218 576 q 507 700 507 579 q 470 765 507 740 q 378 789 433 789 m 271 64 q 416 122 360 64 q 472 256 472 181 q 431 356 472 317 q 306 433 390 394 q 118 201 118 354 q 158 104 118 144 q 271 64 199 64 m 261 -14 q 82 43 143 -14 q 21 185 21 100 q 82 361 21 289 q 233 472 143 433 q 124 643 124 538 q 200 804 124 742 q 389 867 276 867 q 539 823 478 867 q 600 707 600 779 q 429 472 600 554 q 533 388 496 435 q 569 267 569 342 q 489 69 569 151 q 261 -14 408 -14 z "},"":{"ha":607,"x_min":18,"x_max":572,"o":"m 360 660 q 522 593 471 660 q 572 413 572 526 q 535 197 572 308 q 435 -7 499 86 q 274 -160 371 -100 q 68 -221 176 -221 q 18 -181 18 -221 q 31 -136 18 -158 q 86 -142 57 -142 q 253 -89 176 -142 q 378 45 331 -36 q 451 219 425 126 q 478 397 478 311 q 339 582 478 582 q 201 501 253 582 q 149 322 149 421 q 185 205 149 244 q 281 165 221 165 q 356 182 318 165 q 367 150 367 164 q 339 108 367 121 q 247 89 299 89 q 98 145 146 89 q 50 292 50 201 q 137 544 50 429 q 360 660 224 660 z "},"":{"ha":797,"x_min":117,"x_max":686,"o":"m 217 272 q 251 144 217 197 q 350 72 285 92 q 419 575 396 415 q 274 473 332 554 q 217 272 217 392 m 501 763 q 500 750 501 761 q 494 712 499 739 q 488 660 490 685 l 493 660 q 572 650 531 660 q 650 615 614 640 q 686 556 686 589 q 669 513 686 532 q 621 486 651 493 q 558 560 590 540 q 475 582 525 581 q 404 64 442 346 l 418 64 q 578 160 501 64 q 625 107 625 149 q 549 18 625 50 q 406 -14 474 -14 l 393 -14 q 383 -131 383 -99 l 363 -133 q 328 -101 328 -133 q 339 -8 328 -86 q 174 78 232 7 q 117 261 117 149 q 203 526 117 419 q 431 654 289 633 q 444 786 443 750 q 468 790 460 790 q 501 763 501 790 z "},"ﬀ":{"ha":839,"x_min":0,"x_max":978,"o":"m 544 568 l 239 569 q 164 -47 199 90 q 65 -182 129 -182 q 26 -165 44 -182 q 0 -117 8 -147 q 60 -40 33 -107 q 103 141 86 28 q 128 349 119 254 q 144 568 136 443 q 57 561 104 567 q 54 586 54 581 q 135 646 54 646 l 153 646 q 217 897 161 801 q 386 992 274 992 q 480 969 439 992 q 521 899 521 946 q 460 832 521 847 q 420 893 449 874 q 363 913 392 913 q 281 835 310 913 q 247 646 253 757 l 553 646 q 628 897 563 801 q 824 992 693 992 q 931 969 883 992 q 978 899 978 946 q 917 832 978 847 q 866 893 903 874 q 793 913 829 913 q 690 834 726 913 q 647 644 654 756 q 836 651 749 644 q 840 624 840 636 q 774 571 840 572 q 639 569 742 569 q 564 -47 599 90 q 465 -182 529 -182 q 426 -165 444 -182 q 400 -117 408 -147 q 460 -40 433 -107 q 503 141 486 28 q 528 349 519 254 q 544 568 536 443 z "},"ﬁ":{"ha":668,"x_min":0,"x_max":639,"o":"m 558 658 q 618 571 618 658 q 588 344 618 519 q 557 138 557 169 q 601 50 557 81 q 531 -14 582 -14 q 461 113 461 -14 q 487 317 461 178 q 513 515 513 457 q 503 571 513 551 q 239 569 471 569 q 164 -47 199 90 q 65 -182 129 -182 q 26 -165 44 -182 q 0 -117 8 -147 q 60 -40 33 -107 q 103 141 86 28 q 128 349 119 254 q 144 568 136 443 q 57 561 104 567 q 54 586 54 581 q 135 646 54 646 l 153 646 q 238 897 163 801 q 463 992 313 992 q 585 969 532 992 q 639 899 639 946 q 618 851 639 872 q 551 831 597 831 q 433 913 525 913 q 328 869 371 913 q 269 769 286 825 q 247 644 251 713 q 528 649 422 644 q 558 658 544 658 z "},"ﬂ":{"ha":708,"x_min":0,"x_max":694,"o":"m 450 992 q 593 956 514 992 q 646 986 615 986 q 681 971 667 986 q 694 929 694 956 q 635 513 694 860 q 575 138 575 165 q 619 50 575 81 q 549 -14 600 -14 q 479 113 479 -14 q 533 487 479 176 q 593 867 588 797 q 432 913 526 913 q 303 834 349 913 q 247 644 257 756 q 436 651 349 644 q 440 624 440 636 q 374 571 440 572 q 239 569 342 569 q 164 -47 199 90 q 65 -182 129 -182 q 26 -165 44 -182 q 0 -117 8 -147 q 60 -40 33 -107 q 103 141 86 28 q 128 349 119 254 q 144 568 136 443 q 57 561 104 567 q 54 586 54 581 q 135 646 54 646 l 153 646 q 235 897 163 803 q 450 992 307 992 z "},"ﬃ":{"ha":1068,"x_min":0,"x_max":1039,"o":"m 247 644 l 553 646 q 638 897 563 801 q 863 992 713 992 q 985 969 932 992 q 1039 899 1039 946 q 1018 851 1039 872 q 951 831 997 831 q 833 913 925 913 q 728 869 771 913 q 669 769 686 825 q 647 644 651 713 q 836 651 749 644 q 840 624 840 636 q 774 571 840 572 q 639 569 742 569 q 564 -47 599 90 q 465 -182 529 -182 q 426 -165 444 -182 q 400 -117 408 -147 q 544 569 504 -85 l 239 569 q 164 -47 199 90 q 65 -182 129 -182 q 26 -165 44 -182 q 0 -117 8 -147 q 60 -40 33 -107 q 103 141 86 28 q 128 349 119 254 q 144 568 136 443 q 57 561 104 567 q 54 586 54 581 q 135 646 54 646 l 153 646 q 217 897 161 801 q 386 992 274 992 q 480 969 439 992 q 521 899 521 946 q 460 832 521 847 q 420 893 449 874 q 363 913 392 913 q 281 835 310 913 q 247 644 253 757 m 958 658 q 1018 571 1018 658 q 988 344 1018 519 q 957 138 957 169 q 1001 50 957 81 q 931 -14 982 -14 q 861 113 861 -14 q 887 317 861 178 q 913 515 913 457 q 885 588 913 581 q 910 633 888 607 q 958 658 932 658 z "},"ﬄ":{"ha":1099,"x_min":0,"x_max":1094,"o":"m 544 569 l 239 569 q 164 -47 199 90 q 65 -182 129 -182 q 26 -165 44 -182 q 0 -117 8 -147 q 60 -40 33 -107 q 103 141 86 28 q 128 349 119 254 q 144 568 136 443 q 57 561 104 567 q 54 586 54 581 q 135 646 54 646 l 153 646 q 217 897 161 801 q 386 992 274 992 q 480 969 439 992 q 521 899 521 946 q 460 832 521 847 q 420 893 449 874 q 363 913 392 913 q 281 835 310 913 q 247 646 253 758 l 553 646 q 635 897 563 803 q 850 992 707 992 q 993 956 914 992 q 1046 986 1015 986 q 1081 971 1067 986 q 1094 929 1094 956 q 1035 513 1094 860 q 975 138 975 165 q 1019 50 975 81 q 949 -14 1000 -14 q 879 113 879 -14 q 933 487 879 176 q 993 867 988 797 q 832 913 926 913 q 703 834 749 913 q 647 644 657 756 q 836 651 749 644 q 840 624 840 636 q 774 571 840 572 q 639 569 742 569 q 564 -47 599 90 q 465 -182 529 -182 q 426 -165 444 -182 q 400 -117 408 -147 q 544 569 504 -85 z "},"ﬆ":{"ha":936,"x_min":7,"x_max":974,"o":"m 606 646 l 651 646 q 660 720 651 657 q 669 792 669 783 q 601 836 669 836 q 504 782 549 836 q 460 653 460 728 q 468 596 460 625 q 476 561 476 567 q 411 492 476 508 q 362 557 403 532 q 272 582 321 582 q 185 553 222 582 q 147 471 147 524 q 178 408 147 431 q 255 374 210 385 q 344 349 300 364 q 420 297 389 335 q 451 194 451 258 q 379 39 451 92 q 194 -14 307 -14 q 63 15 119 -14 q 7 88 7 44 q 72 156 7 139 q 126 88 81 111 q 232 64 171 64 q 335 94 297 64 q 372 167 372 124 q 333 240 372 213 q 258 274 310 257 q 168 303 207 290 q 98 353 129 317 q 67 447 67 390 q 139 606 67 553 q 314 660 211 660 q 421 635 371 660 q 415 688 415 671 q 473 835 415 776 q 606 894 531 894 q 717 857 667 894 q 769 768 767 819 l 769 763 q 765 732 769 754 q 756 682 761 710 q 750 644 751 654 q 969 651 875 644 q 974 624 974 636 q 907 571 974 572 q 738 569 863 569 q 686 167 686 218 q 708 81 686 103 q 776 60 729 60 q 876 101 825 60 q 899 54 899 79 q 860 3 899 21 q 768 -14 821 -14 q 594 174 594 -14 q 603 268 594 204 q 625 427 611 332 q 644 569 639 522 q 528 561 619 569 q 525 586 525 581 q 606 646 525 646 z "}}}
